<svg xmlns="http://www.w3.org/2000/svg" width="208" height="63" viewBox="0 0 208 63" fill="none">
  <g clip-path="url(#clip0_3_40)">
    <path d="M206.508 55.0154C206.508 58.2952 203.868 60.9519 200.601 60.9519H7.286C4.02117 60.9519 1.37109 58.2952 1.37109 55.0154V7.67374C1.37109 4.39549 4.02117 1.72949 7.286 1.72949H200.6C203.868 1.72949 206.507 4.39549 206.507 7.67374L206.508 55.0154Z" fill="black"/>
    <path d="M46.4194 31.0167C46.3747 26.021 50.4854 23.5906 50.6734 23.4775C48.3453 20.0628 44.7369 19.5963 43.4689 19.5591C40.4383 19.2382 37.4985 21.3834 35.9547 21.3834C34.3801 21.3834 32.0027 19.5901 29.4404 19.6428C26.1433 19.6939 23.0587 21.6144 21.367 24.5966C17.8757 30.6772 20.4795 39.613 23.8245 44.528C25.4977 46.9352 27.4529 49.6229 30.0121 49.5283C32.5158 49.4245 33.451 47.9225 36.4724 47.9225C39.4661 47.9225 40.3443 49.5283 42.9543 49.4679C45.6413 49.4245 47.3331 47.0499 48.9478 44.621C50.8814 41.862 51.6579 39.1449 51.6887 39.0054C51.6256 38.9837 46.4703 37.0043 46.4194 31.0167Z" fill="white"/>
    <path d="M41.4887 16.3253C42.8353 14.6311 43.7566 12.3263 43.5009 9.9873C41.5518 10.0741 39.1144 11.3436 37.7108 13.0005C36.4689 14.4606 35.3596 16.8538 35.6462 19.1044C37.8356 19.2687 40.0835 17.9931 41.4887 16.3253Z" fill="white"/>
    <path d="M82.653 49.1831H79.154L77.2373 43.1241H70.5751L68.7493 49.1831H65.3428L71.9433 28.5557H76.0201L82.653 49.1831ZM76.6595 40.5821L74.9262 35.1959C74.7428 34.6456 74.3992 33.3498 73.8923 31.31H73.8307C73.6289 32.1873 73.3038 33.4831 72.857 35.1959L71.1544 40.5821H76.6595Z" fill="white"/>
    <path d="M99.6267 41.5623C99.6267 44.0919 98.9472 46.0914 97.5883 47.5592C96.3711 48.8659 94.8596 49.5184 93.0554 49.5184C91.1079 49.5184 89.7089 48.8147 88.8569 47.4073H88.7952V55.2426H85.5104V39.2047C85.5104 37.6144 85.4688 35.9823 85.3887 34.3083H88.2776L88.4609 36.6658H88.5225C89.618 34.8895 91.2805 34.0029 93.5115 34.0029C95.2556 34.0029 96.7116 34.6958 97.8764 36.083C99.0443 37.4718 99.6267 39.2977 99.6267 41.5623ZM96.2802 41.6832C96.2802 40.2355 95.9566 39.042 95.3064 38.1027C94.5961 37.1231 93.6424 36.6333 92.4468 36.6333C91.6364 36.6333 90.8999 36.9061 90.242 37.4439C89.5826 37.9864 89.1512 38.6948 88.9493 39.5721C88.8476 39.9813 88.7968 40.3161 88.7968 40.5796V43.0596C88.7968 44.1415 89.1265 45.0544 89.7859 45.8C90.4454 46.5455 91.302 46.9175 92.3559 46.9175C93.5931 46.9175 94.5561 46.437 95.2448 45.4791C95.935 44.5197 96.2802 43.2549 96.2802 41.6832Z" fill="white"/>
    <path d="M116.633 41.5623C116.633 44.0919 115.953 46.0914 114.593 47.5592C113.377 48.8659 111.866 49.5184 110.062 49.5184C108.114 49.5184 106.715 48.8147 105.865 47.4073H105.803V55.2426H102.518V39.2047C102.518 37.6144 102.477 35.9823 102.396 34.3083H105.285L105.469 36.6658H105.53C106.624 34.8895 108.287 34.0029 110.519 34.0029C112.262 34.0029 113.718 34.6958 114.886 36.083C116.049 37.4718 116.633 39.2977 116.633 41.5623ZM113.286 41.6832C113.286 40.2355 112.961 39.042 112.311 38.1027C111.601 37.1231 110.65 36.6333 109.453 36.6333C108.641 36.6333 107.906 36.9061 107.247 37.4439C106.587 37.9864 106.157 38.6948 105.956 39.5721C105.855 39.9813 105.803 40.3161 105.803 40.5796V43.0596C105.803 44.1415 106.133 45.0544 106.789 45.8C107.449 46.544 108.305 46.9175 109.362 46.9175C110.599 46.9175 111.562 46.437 112.251 45.4791C112.941 44.5197 113.286 43.2549 113.286 41.6832Z" fill="white"/>
    <path d="M135.645 43.398C135.645 45.1526 135.04 46.5801 133.824 47.6822C132.488 48.8865 130.629 49.4879 128.239 49.4879C126.033 49.4879 124.264 49.0601 122.925 48.203L123.686 45.4486C125.128 46.3259 126.71 46.7661 128.435 46.7661C129.672 46.7661 130.635 46.484 131.327 45.9229C132.015 45.3618 132.359 44.6085 132.359 43.6692C132.359 42.8322 132.075 42.127 131.507 41.555C130.941 40.9831 129.997 40.4514 128.678 39.9601C125.088 38.6131 123.295 36.64 123.295 34.0453C123.295 32.3496 123.923 30.9592 125.182 29.8773C126.436 28.7939 128.109 28.2529 130.202 28.2529C132.068 28.2529 133.618 28.58 134.855 29.2325L134.034 31.9264C132.878 31.294 131.572 30.9778 130.109 30.9778C128.954 30.9778 128.051 31.2646 127.404 31.835C126.857 32.3449 126.583 32.9665 126.583 33.7027C126.583 34.518 126.895 35.1923 127.524 35.7224C128.071 36.2122 129.065 36.7423 130.507 37.3142C132.271 38.0288 133.567 38.8642 134.4 39.8221C135.231 40.7769 135.645 41.972 135.645 43.398Z" fill="white"/>
    <path d="M146.506 36.7888H142.885V44.0103C142.885 45.847 143.523 46.7646 144.802 46.7646C145.389 46.7646 145.876 46.7135 146.261 46.6112L146.352 49.1206C145.705 49.364 144.853 49.4864 143.797 49.4864C142.5 49.4864 141.486 49.0881 140.754 48.2929C140.026 47.4962 139.659 46.1601 139.659 44.2831V36.7857H137.502V34.3057H139.659V31.5824L142.885 30.6028V34.3057H146.506V36.7888Z" fill="white"/>
    <path d="M162.843 41.6231C162.843 43.9094 162.193 45.7864 160.895 47.2543C159.535 48.7655 157.729 49.5188 155.478 49.5188C153.309 49.5188 151.581 48.795 150.293 47.3473C149.005 45.8996 148.361 44.0721 148.361 41.8696C148.361 39.5647 149.024 37.6768 150.354 36.209C151.68 34.7396 153.47 34.0049 155.721 34.0049C157.891 34.0049 159.636 34.7287 160.954 36.178C162.214 37.5838 162.843 39.3989 162.843 41.6231ZM159.435 41.7301C159.435 40.3583 159.143 39.1819 158.553 38.2007C157.865 37.0134 156.88 36.4213 155.604 36.4213C154.284 36.4213 153.281 37.015 152.592 38.2007C152.002 39.1834 151.711 40.3785 151.711 41.7921C151.711 43.1638 152.002 44.3403 152.592 45.3199C153.302 46.5072 154.295 47.0993 155.575 47.0993C156.829 47.0993 157.814 46.4948 158.524 45.2889C159.13 44.2891 159.435 43.1003 159.435 41.7301Z" fill="white"/>
    <path d="M173.52 37.2145C173.194 37.1541 172.848 37.1231 172.484 37.1231C171.329 37.1231 170.435 37.5617 169.806 38.4406C169.259 39.2156 168.985 40.1952 168.985 41.3778V49.1821H165.702L165.733 38.9924C165.733 37.2781 165.691 35.7172 165.609 34.3098H168.471L168.591 37.1556H168.682C169.028 36.1776 169.575 35.3902 170.324 34.7996C171.056 34.268 171.846 34.0029 172.698 34.0029C173.002 34.0029 173.276 34.0246 173.52 34.0634V37.2145Z" fill="white"/>
    <path d="M188.211 41.042C188.211 41.6341 188.172 42.1332 188.09 42.5409H178.236C178.274 44.0103 178.751 45.134 179.666 45.909C180.496 46.6019 181.57 46.9491 182.889 46.9491C184.348 46.9491 185.679 46.715 186.876 46.2454L187.391 48.5394C185.992 49.1532 184.34 49.4585 182.434 49.4585C180.142 49.4585 178.342 48.7796 177.033 47.4234C175.726 46.0671 175.071 44.2459 175.071 41.9612C175.071 39.7183 175.68 37.8506 176.899 36.361C178.174 34.7707 179.898 33.9756 182.068 33.9756C184.199 33.9756 185.812 34.7707 186.907 36.361C187.775 37.6243 188.211 39.1867 188.211 41.042ZM185.078 40.1849C185.1 39.2053 184.886 38.359 184.44 37.6444C183.872 36.7253 182.998 36.2665 181.823 36.2665C180.749 36.2665 179.875 36.7144 179.208 37.6134C178.661 38.328 178.336 39.1851 178.236 40.1833L185.078 40.1849Z" fill="white"/>
    <path d="M75.5729 15.8646C75.5729 17.6889 75.029 19.0622 73.9428 19.9845C72.9367 20.8354 71.5069 21.2617 69.6549 21.2617C68.7366 21.2617 67.9509 21.2214 67.293 21.1408V11.1727C68.1512 11.0332 69.0756 10.9619 70.074 10.9619C71.8382 10.9619 73.1678 11.3479 74.0645 12.1198C75.0691 12.9924 75.5729 14.2402 75.5729 15.8646ZM73.8704 15.9095C73.8704 14.7269 73.5592 13.8201 72.9367 13.1877C72.3142 12.5569 71.4052 12.2407 70.2081 12.2407C69.6996 12.2407 69.2667 12.2748 68.9077 12.3461V19.924C69.1064 19.955 69.47 19.969 69.9985 19.969C71.2342 19.969 72.1879 19.6233 72.8597 18.932C73.5314 18.2407 73.8704 17.2332 73.8704 15.9095Z" fill="white"/>
    <path d="M84.5999 17.4575C84.5999 18.5813 84.281 19.502 83.6431 20.2243C82.9744 20.9667 82.0885 21.3372 80.9823 21.3372C79.9161 21.3372 79.0671 20.9822 78.4339 20.2692C77.8022 19.5578 77.4863 18.6603 77.4863 17.5784C77.4863 16.4469 77.8114 15.5185 78.4647 14.7977C79.118 14.077 79.9962 13.7158 81.1024 13.7158C82.1686 13.7158 83.0253 14.0708 83.6739 14.7822C84.2902 15.4735 84.5999 16.3663 84.5999 17.4575ZM82.9251 17.5102C82.9251 16.836 82.7803 16.2578 82.4922 15.7758C82.1532 15.193 81.671 14.9016 81.0439 14.9016C80.3952 14.9016 79.9022 15.193 79.5632 15.7758C79.2736 16.2578 79.1303 16.8453 79.1303 17.5397C79.1303 18.2139 79.2751 18.7921 79.5632 19.2741C79.913 19.8569 80.3999 20.1483 81.0285 20.1483C81.6448 20.1483 82.1286 19.8523 82.4768 19.2586C82.7757 18.7673 82.9251 18.1845 82.9251 17.5102Z" fill="white"/>
    <path d="M96.7049 13.8662L94.4323 21.1729H92.9532L92.0118 18.0001C91.773 17.208 91.5789 16.4206 91.4279 15.6394H91.3986C91.2584 16.4423 91.0642 17.2282 90.8146 18.0001L89.8147 21.1729H88.3186L86.1816 13.8662H87.841L88.6622 17.3398C88.861 18.1613 89.0243 18.944 89.1553 19.6849H89.1845C89.3047 19.0742 89.5035 18.2961 89.7839 17.3553L90.8146 13.8678H92.1304L93.1181 17.2809C93.3569 18.1132 93.551 18.9146 93.7005 19.6865H93.7451C93.8545 18.9347 94.0194 18.1334 94.2382 17.2809L95.1195 13.8678H96.7049V13.8662Z" fill="white"/>
    <path d="M105.075 21.1721H103.461V16.9871C103.461 15.6975 102.974 15.0527 101.997 15.0527C101.518 15.0527 101.131 15.2294 100.831 15.5843C100.533 15.9393 100.382 16.3578 100.382 16.8367V21.1705H98.7675V15.9532C98.7675 15.3115 98.7475 14.6156 98.709 13.8623H100.128L100.204 15.0046H100.248C100.436 14.6497 100.717 14.3567 101.085 14.1227C101.522 13.8499 102.012 13.7119 102.549 13.7119C103.226 13.7119 103.79 13.932 104.239 14.3738C104.796 14.9147 105.075 15.7223 105.075 16.7949V21.1721Z" fill="white"/>
    <path d="M109.528 21.172H107.915V10.5127H109.528V21.172Z" fill="white"/>
    <path d="M119.034 17.4575C119.034 18.5813 118.715 19.502 118.077 20.2243C117.408 20.9667 116.521 21.3372 115.416 21.3372C114.348 21.3372 113.499 20.9822 112.867 20.2692C112.236 19.5578 111.92 18.6603 111.92 17.5784C111.92 16.4469 112.245 15.5185 112.898 14.7977C113.552 14.077 114.43 13.7158 115.535 13.7158C116.602 13.7158 117.457 14.0708 118.108 14.7822C118.724 15.4735 119.034 16.3663 119.034 17.4575ZM117.357 17.5102C117.357 16.836 117.212 16.2578 116.924 15.7758C116.587 15.193 116.103 14.9016 115.477 14.9016C114.827 14.9016 114.334 15.193 113.997 15.7758C113.707 16.2578 113.564 16.8453 113.564 17.5397C113.564 18.2139 113.709 18.7921 113.997 19.2741C114.347 19.8569 114.833 20.1483 115.462 20.1483C116.078 20.1483 116.561 19.8523 116.909 19.2586C117.209 18.7673 117.357 18.1845 117.357 17.5102Z" fill="white"/>
    <path d="M126.849 21.1713H125.4L125.279 20.3297H125.235C124.739 21.0008 124.031 21.3372 123.113 21.3372C122.427 21.3372 121.873 21.1155 121.455 20.6753C121.076 20.2754 120.887 19.7779 120.887 19.1873C120.887 18.2945 121.256 17.6141 122.001 17.1429C122.743 16.6717 123.788 16.4407 125.133 16.4516V16.3152C125.133 15.3526 124.631 14.8721 123.625 14.8721C122.908 14.8721 122.276 15.0535 121.731 15.4131L121.403 14.3467C122.078 13.9266 122.911 13.7158 123.894 13.7158C125.792 13.7158 126.745 14.7233 126.745 16.7383V19.4291C126.745 20.1592 126.78 20.7404 126.849 21.1713ZM125.173 18.6603V17.5335C123.392 17.5025 122.501 17.9938 122.501 19.006C122.501 19.3873 122.603 19.6725 122.811 19.8631C123.019 20.0538 123.284 20.1483 123.6 20.1483C123.954 20.1483 124.286 20.0352 124.588 19.8104C124.891 19.5841 125.078 19.2974 125.147 18.9455C125.164 18.8665 125.173 18.7704 125.173 18.6603Z" fill="white"/>
    <path d="M136.024 21.172H134.591L134.516 19.9987H134.471C134.013 20.8915 133.234 21.3379 132.138 21.3379C131.263 21.3379 130.534 20.9922 129.957 20.3009C129.379 19.6096 129.091 18.7122 129.091 17.6101C129.091 16.4275 129.404 15.4696 130.032 14.738C130.641 14.056 131.387 13.715 132.274 13.715C133.249 13.715 133.932 14.0451 134.32 14.707H134.351V10.5127H135.967V19.2035C135.967 19.915 135.986 20.5706 136.024 21.172ZM134.351 18.0906V16.8723C134.351 16.6615 134.335 16.491 134.306 16.3608C134.215 15.9702 134.02 15.6416 133.722 15.3766C133.422 15.1115 133.06 14.9782 132.642 14.9782C132.04 14.9782 131.568 15.2185 131.222 15.7005C130.878 16.1826 130.704 16.7979 130.704 17.5497C130.704 18.272 130.869 18.8579 131.2 19.3089C131.55 19.7894 132.021 20.0297 132.611 20.0297C133.141 20.0297 133.565 19.8297 133.887 19.4283C134.198 19.0578 134.351 18.6114 134.351 18.0906Z" fill="white"/>
    <path d="M149.833 17.4575C149.833 18.5813 149.514 19.502 148.877 20.2243C148.208 20.9667 147.323 21.3372 146.216 21.3372C145.151 21.3372 144.302 20.9822 143.667 20.2692C143.036 19.5578 142.72 18.6603 142.72 17.5784C142.72 16.4469 143.045 15.5185 143.698 14.7977C144.351 14.077 145.23 13.7158 146.337 13.7158C147.402 13.7158 148.26 14.0708 148.907 14.7822C149.524 15.4735 149.833 16.3663 149.833 17.4575ZM148.16 17.5102C148.16 16.836 148.015 16.2578 147.727 15.7758C147.387 15.193 146.906 14.9016 146.277 14.9016C145.63 14.9016 145.137 15.193 144.797 15.7758C144.507 16.2578 144.364 16.8453 144.364 17.5397C144.364 18.2139 144.509 18.7921 144.797 19.2741C145.146 19.8569 145.633 20.1483 146.262 20.1483C146.878 20.1483 147.364 19.8523 147.712 19.2586C148.009 18.7673 148.16 18.1845 148.16 17.5102Z" fill="white"/>
    <path d="M158.515 21.1721H156.902V16.9871C156.902 15.6975 156.415 15.0527 155.437 15.0527C154.958 15.0527 154.571 15.2294 154.272 15.5843C153.973 15.9393 153.824 16.3578 153.824 16.8367V21.1705H152.207V15.9532C152.207 15.3115 152.189 14.6156 152.15 13.8623H153.568L153.643 15.0046H153.688C153.878 14.6497 154.158 14.3567 154.525 14.1227C154.964 13.8499 155.452 13.7119 155.99 13.7119C156.666 13.7119 157.23 13.932 157.679 14.3738C158.238 14.9147 158.515 15.7223 158.515 16.7949V21.1721Z" fill="white"/>
    <path d="M169.382 15.0823H167.604V18.6318C167.604 19.5339 167.92 19.985 168.546 19.985C168.835 19.985 169.076 19.9602 169.265 19.909L169.307 21.1413C168.988 21.2622 168.569 21.3226 168.053 21.3226C167.415 21.3226 166.919 21.1273 166.56 20.7367C166.199 20.3461 166.021 19.6889 166.021 18.7667V15.0823H164.959V13.8656H166.021V12.5264L167.603 12.0459V13.864H169.381L169.382 15.0823Z" fill="white"/>
    <path d="M177.931 21.172H176.315V17.018C176.315 15.7083 175.828 15.0526 174.852 15.0526C174.104 15.0526 173.592 15.4324 173.312 16.1919C173.264 16.3515 173.236 16.5468 173.236 16.7762V21.1705H171.623V10.5127H173.236V14.9162H173.267C173.775 14.1149 174.504 13.715 175.449 13.715C176.117 13.715 176.671 13.9351 177.11 14.3768C177.657 14.9271 177.931 15.7455 177.931 16.8274V21.172Z" fill="white"/>
    <path d="M186.748 17.1726C186.748 17.464 186.727 17.7089 186.688 17.9088H181.846C181.867 18.6311 182.098 19.1814 182.547 19.5627C182.957 19.9037 183.485 20.0742 184.132 20.0742C184.849 20.0742 185.502 19.9595 186.09 19.7285L186.343 20.8569C185.654 21.1576 184.844 21.308 183.906 21.308C182.781 21.308 181.895 20.9747 181.254 20.3082C180.61 19.6417 180.291 18.7474 180.291 17.6252C180.291 16.5231 180.588 15.6055 181.188 14.8739C181.813 14.0927 182.659 13.7021 183.727 13.7021C184.771 13.7021 185.565 14.0927 186.101 14.8739C186.534 15.4939 186.748 16.2612 186.748 17.1726ZM185.208 16.7525C185.22 16.2705 185.114 15.8551 184.895 15.5048C184.614 15.0537 184.188 14.8274 183.61 14.8274C183.083 14.8274 182.653 15.0475 182.325 15.4893C182.057 15.8411 181.898 16.2612 181.846 16.7525H185.208Z" fill="white"/>
  </g>
  <defs>
    <clipPath id="clip0_3_40">
      <rect width="208" height="62" fill="white" transform="translate(0 0.350586)"/>
    </clipPath>
  </defs>
</svg>