<svg xmlns="http://www.w3.org/2000/svg" width="18" height="19" viewBox="0 0 18 19" fill="none">
  <path d="M17.7435 14.0757C17.6943 13.9633 17.6148 13.8667 17.5138 13.7968C16.1218 12.8404 15.8322 11.2088 15.8322 10.0078C15.8322 8.55832 16.9371 7.29586 17.5959 6.6716C17.6606 6.61028 17.7123 6.53638 17.7475 6.45444C17.7828 6.37249 17.801 6.28421 17.801 6.195C17.801 6.10579 17.7828 6.01751 17.7475 5.93557C17.7123 5.85362 17.6606 5.77973 17.5959 5.7184C16.5557 4.73649 14.833 4.10156 13.2072 4.10156C12.0392 4.10246 10.8976 4.44865 9.92593 5.0966C8.79236 4.33647 7.42934 3.99509 6.0713 4.13118C4.71326 4.26727 3.44508 4.87232 2.48488 5.84227C1.91085 6.42829 1.46046 7.1237 1.16045 7.88719C0.860433 8.65068 0.716921 9.46668 0.738434 10.2867C0.77091 11.6708 1.07881 13.0346 1.64416 14.2984C2.20951 15.5622 3.02097 16.7007 4.03117 17.6474C4.63968 18.2223 5.44578 18.5415 6.28293 18.5391H13.4754C13.923 18.5399 14.3659 18.4488 14.7768 18.2715C15.1877 18.0941 15.5578 17.8342 15.8642 17.5079C16.4317 16.8972 16.9226 16.2195 17.326 15.49C17.9018 14.4375 17.828 14.2734 17.7435 14.0757ZM14.9028 16.6138C14.7196 16.8083 14.4983 16.9631 14.2528 17.0685C14.0072 17.1739 13.7426 17.2277 13.4754 17.2266H6.28293C5.78153 17.2282 5.2987 17.037 4.93433 16.6925C4.05009 15.8647 3.33969 14.8689 2.84461 13.7634C2.34954 12.6579 2.07973 11.4649 2.05093 10.2539C2.03299 9.61051 2.14466 8.97007 2.3793 8.37072C2.61394 7.77136 2.96676 7.22533 3.41675 6.76512C3.83718 6.3356 4.33946 5.99474 4.89389 5.76268C5.44832 5.53062 6.04365 5.41208 6.64468 5.41406H6.70867C7.73099 5.42483 8.71987 5.7797 9.51578 6.42141C9.63217 6.5146 9.77683 6.56537 9.92593 6.56537C10.075 6.56537 10.2197 6.5146 10.3361 6.42141C11.1491 5.76594 12.1629 5.41024 13.2072 5.41406C14.25 5.42617 15.2703 5.71949 16.1603 6.26309C15.0939 7.45418 14.5197 8.76258 14.5197 10.0078C14.5197 11.9577 15.1464 13.513 16.3391 14.5441C15.9635 15.3002 15.4797 15.9974 14.9028 16.6138ZM9.9448 2.625C10.1268 1.92012 10.5381 1.29577 11.1138 0.850249C11.6896 0.404728 12.3971 0.163333 13.1252 0.164064H13.2072C13.3812 0.164064 13.5482 0.233205 13.6712 0.356275C13.7943 0.479346 13.8634 0.646266 13.8634 0.820314C13.8634 0.994363 13.7943 1.16128 13.6712 1.28435C13.5482 1.40742 13.3812 1.47656 13.2072 1.47656H13.1252C12.6887 1.47653 12.2645 1.62155 11.9194 1.88883C11.5743 2.15611 11.3279 2.53049 11.2187 2.95313C11.1752 3.12174 11.0665 3.26615 10.9165 3.35461C10.7665 3.44307 10.5876 3.46832 10.4189 3.42481C10.2503 3.38129 10.1059 3.27258 10.0175 3.12259C9.929 2.9726 9.90375 2.79361 9.94726 2.625H9.9448Z" fill="black"/>
</svg>