<svg xmlns="http://www.w3.org/2000/svg" width="40" height="74" viewBox="0 0 40 74" fill="none">
  <path d="M1.68783 38.6758L1.68744 38.6754C1.4701 38.4563 1.29719 38.1956 1.17906 37.908C1.06092 37.6204 1 37.3119 1 37C1 36.6881 1.06092 36.3796 1.17906 36.092C1.29719 35.8044 1.4701 35.5437 1.68744 35.3246L1.68783 35.3242L35.0174 1.68956L34.3113 0.989878L35.0174 1.68956C35.456 1.24697 36.0489 1 36.6652 1C37.2815 1 37.8744 1.24697 38.3129 1.68956L39.0215 0.98745L38.3129 1.68956C38.7518 2.13246 39 2.73508 39 3.36534C39 3.99557 38.7518 4.59817 38.313 5.04106C38.313 5.04108 38.313 5.04109 38.3129 5.04111L7.33728 36.2961L6.63965 37L7.33728 37.7039L38.3129 68.9589C38.5302 69.1781 38.703 69.4389 38.821 69.7265C38.9391 70.0142 39 70.3228 39 70.6347C39 70.9465 38.9391 71.2551 38.821 71.5428C38.703 71.8304 38.5302 72.0912 38.3129 72.3104C38.0957 72.5297 37.8383 72.7031 37.5557 72.8212C37.2731 72.9393 36.9705 73 36.6652 73C36.3598 73 36.0573 72.9393 35.7747 72.8212C35.492 72.7031 35.2347 72.5297 35.0174 72.3104L1.68783 38.6758Z" fill="#D7D7D7" stroke="#FAFAFA" stroke-width="2"/>
</svg>