<svg xmlns="http://www.w3.org/2000/svg" width="40" height="74" viewBox="0 0 40 74" fill="none">
  <path d="M38.3122 38.6758L38.3126 38.6754C38.5299 38.4563 38.7028 38.1956 38.8209 37.908C38.9391 37.6204 39 37.3119 39 37C39 36.6881 38.9391 36.3796 38.8209 36.092C38.7028 35.8044 38.5299 35.5437 38.3126 35.3246L38.3122 35.3242L4.98257 1.68956L5.68866 0.989878L4.98256 1.68956C4.54399 1.24697 3.9511 1 3.33482 1C2.71854 1 2.12564 1.24697 1.68707 1.68956L0.978527 0.98745L1.68707 1.68956C1.24818 2.13246 1 2.73508 1 3.36534C1 3.99557 1.24817 4.59817 1.68702 5.04106C1.68703 5.04108 1.68705 5.04109 1.68707 5.04111L32.6627 36.2961L33.3604 37L32.6627 37.7039L1.68707 68.9589C1.46983 69.1781 1.29702 69.4389 1.17896 69.7265C1.06088 70.0142 1 70.3228 1 70.6347C1 70.9465 1.06089 71.2551 1.17896 71.5428C1.29702 71.8304 1.46982 72.0912 1.68707 72.3104C1.90429 72.5297 2.16168 72.7031 2.4443 72.8212C2.72691 72.9393 3.02948 73 3.33482 73C3.64015 73 3.94273 72.9393 4.22533 72.8212C4.50795 72.7031 4.76534 72.5297 4.98256 72.3104L38.3122 38.6758Z" fill="#D7D7D7" stroke="#FAFAFA" stroke-width="2"/>
</svg>