<svg xmlns="http://www.w3.org/2000/svg" width="33" height="33" viewBox="0 0 33 33" fill="none">
  <path d="M16.79 3.82617C14.2189 3.82617 11.7055 4.58861 9.56763 6.01707C7.42979 7.44553 5.76355 9.47585 4.77961 11.8513C3.79567 14.2267 3.53823 16.8406 4.03984 19.3623C4.54144 21.8841 5.77957 24.2005 7.59766 26.0186C9.41574 27.8366 11.7321 29.0748 14.2539 29.5764C16.7756 30.078 19.3895 29.8205 21.7649 28.8366C24.1404 27.8527 26.1707 26.1864 27.5991 24.0486C29.0276 21.9107 29.79 19.3973 29.79 16.8262C29.7864 13.3795 28.4156 10.075 25.9784 7.6378C23.5412 5.20062 20.2367 3.82981 16.79 3.82617ZM17.79 27.7799V19.8262H20.79C21.0553 19.8262 21.3096 19.7208 21.4972 19.5333C21.6847 19.3457 21.79 19.0914 21.79 18.8262C21.79 18.561 21.6847 18.3066 21.4972 18.1191C21.3096 17.9315 21.0553 17.8262 20.79 17.8262H17.79V14.8262C17.79 14.2957 18.0008 13.787 18.3758 13.412C18.7509 13.0369 19.2596 12.8262 19.79 12.8262H21.79C22.0553 12.8262 22.3096 12.7208 22.4972 12.5333C22.6847 12.3457 22.79 12.0914 22.79 11.8262C22.79 11.561 22.6847 11.3066 22.4972 11.1191C22.3096 10.9315 22.0553 10.8262 21.79 10.8262H19.79C18.7292 10.8262 17.7118 11.2476 16.9616 11.9977C16.2115 12.7479 15.79 13.7653 15.79 14.8262V17.8262H12.79C12.5248 17.8262 12.2705 17.9315 12.0829 18.1191C11.8954 18.3066 11.79 18.561 11.79 18.8262C11.79 19.0914 11.8954 19.3457 12.0829 19.5333C12.2705 19.7208 12.5248 19.8262 12.79 19.8262H15.79V27.7799C12.971 27.5226 10.3597 26.1884 8.49934 24.0549C6.63894 21.9214 5.67263 19.1527 5.80144 16.325C5.93024 13.4972 7.14423 10.8279 9.19089 8.8723C11.2375 6.91675 13.9593 5.82547 16.79 5.82547C19.6208 5.82547 22.3425 6.91675 24.3892 8.8723C26.4359 10.8279 27.6498 13.4972 27.7787 16.325C27.9075 19.1527 26.9412 21.9214 25.0807 24.0549C23.2203 26.1884 20.6091 27.5226 17.79 27.7799Z" fill="#3634A3"/>
</svg>