<svg xmlns="http://www.w3.org/2000/svg" width="22" height="21" viewBox="0 0 22 21" fill="none">
  <path d="M19.1298 9.77214L5.36331 2.2698C5.16262 2.15834 4.93446 2.09961 4.70214 2.09961C4.46982 2.09961 4.24166 2.15834 4.04097 2.2698C3.84324 2.37778 3.67919 2.53385 3.56561 2.72206C3.45203 2.91026 3.393 3.12382 3.39456 3.34089V18.3612C3.39391 18.5781 3.45371 18.7912 3.56786 18.9788C3.682 19.1664 3.8464 19.3219 4.04425 19.4292C4.24494 19.5406 4.4731 19.5994 4.70542 19.5994C4.93774 19.5994 5.1659 19.5406 5.36659 19.4292L19.1298 11.9292C19.3329 11.8231 19.5023 11.667 19.6203 11.4772C19.7383 11.2874 19.8006 11.0709 19.8006 10.8503C19.8006 10.6297 19.7383 10.4131 19.6203 10.2233C19.5023 10.0335 19.3329 9.87742 19.1298 9.77136V9.77214ZM4.70706 17.4659V4.2362L11.6543 10.851L4.70706 17.4659ZM12.5821 11.7346L14.1341 13.2128L6.87433 17.1706L12.5821 11.7346ZM6.87269 4.53073L14.1349 8.48933L12.5821 9.96745L6.87269 4.53073ZM15.3145 12.5698L13.5098 10.851L15.3145 9.1323L18.467 10.851L15.3145 12.5698Z" fill="black"/>
</svg>