<svg xmlns="http://www.w3.org/2000/svg" width="205" height="60" viewBox="0 0 205 60" fill="none">
  <path d="M196.731 59.322H7.5638C3.3857 59.322 0 56.0028 0 51.9068V7.41525C0 3.31921 3.3857 0 7.5638 0H196.731C200.909 0 204.295 3.31921 204.295 7.41525V51.9068C204.295 56.0028 200.837 59.322 196.731 59.322Z" fill="black"/>
  <path d="M69.5174 12.6499C69.4183 12.3526 69.2878 12.0863 69.1257 11.8509C68.9666 11.6125 68.776 11.4095 68.5538 11.2417C68.3347 11.074 68.0856 10.946 67.8064 10.8577C67.5272 10.7694 67.2211 10.7253 66.8879 10.7253C66.3415 10.7253 65.8448 10.8636 65.3975 11.1402C64.9502 11.4168 64.5945 11.8244 64.3304 12.3629C64.0662 12.9015 63.9341 13.5621 63.9341 14.3449C63.9341 15.1277 64.0677 15.7883 64.3349 16.3269C64.602 16.8654 64.9637 17.273 65.42 17.5496C65.8763 17.8262 66.3896 17.9645 66.9599 17.9645C67.4882 17.9645 67.9535 17.8542 68.3557 17.6335C68.761 17.4098 69.0761 17.0949 69.3013 16.6888C69.5294 16.2798 69.6435 15.7986 69.6435 15.2454L69.9857 15.316H67.2121V14.3449H70.7241V15.316C70.7241 16.0606 70.562 16.708 70.2378 17.2583C69.9166 17.8086 69.4724 18.2353 68.905 18.5384C68.3407 18.8386 67.6923 18.9886 66.9599 18.9886C66.1434 18.9886 65.426 18.8003 64.8077 18.4236C64.1923 18.0469 63.712 17.5114 63.3668 16.8169C63.0246 16.1224 62.8535 15.2984 62.8535 14.3449C62.8535 13.6298 62.9511 12.9868 63.1462 12.4159C63.3443 11.8421 63.6235 11.3536 63.9837 10.9504C64.3439 10.5472 64.7701 10.2382 65.2624 10.0234C65.7547 9.80858 66.2965 9.70117 66.8879 9.70117C67.3741 9.70117 67.8274 9.77327 68.2477 9.91747C68.6709 10.0587 69.0476 10.2603 69.3778 10.5222C69.711 10.7812 69.9887 11.0916 70.2108 11.4536C70.4329 11.8126 70.586 12.2114 70.6701 12.6499H69.5174Z" fill="white"/>
  <path d="M72.6366 18.865V9.82477H78.2018V10.7959H73.7532V13.8505H77.9137V14.8216H73.7532V17.8939H78.2739V18.865H72.6366Z" fill="white"/>
  <path d="M79.7102 10.7959V9.82477H86.6262V10.7959H83.7265V18.865H82.6099V10.7959H79.7102Z" fill="white"/>
  <path d="M93.0323 9.82477V18.865H91.9157V9.82477H93.0323Z" fill="white"/>
  <path d="M94.767 10.7959V9.82477H101.683V10.7959H98.7833V18.865H97.6667V10.7959H94.767Z" fill="white"/>
  <path d="M114.753 14.3449C114.753 15.2984 114.577 16.1224 114.226 16.8169C113.875 17.5114 113.393 18.0469 112.781 18.4236C112.168 18.8003 111.469 18.9886 110.683 18.9886C109.896 18.9886 109.197 18.8003 108.584 18.4236C107.972 18.0469 107.49 17.5114 107.139 16.8169C106.788 16.1224 106.612 15.2984 106.612 14.3449C106.612 13.3914 106.788 12.5675 107.139 11.873C107.49 11.1785 107.972 10.6429 108.584 10.2662C109.197 9.88951 109.896 9.70117 110.683 9.70117C111.469 9.70117 112.168 9.88951 112.781 10.2662C113.393 10.6429 113.875 11.1785 114.226 11.873C114.577 12.5675 114.753 13.3914 114.753 14.3449ZM113.672 14.3449C113.672 13.5621 113.539 12.9015 113.272 12.3629C113.007 11.8244 112.649 11.4168 112.195 11.1402C111.745 10.8636 111.241 10.7253 110.683 10.7253C110.124 10.7253 109.618 10.8636 109.165 11.1402C108.715 11.4168 108.356 11.8244 108.089 12.3629C107.825 12.9015 107.693 13.5621 107.693 14.3449C107.693 15.1277 107.825 15.7883 108.089 16.3269C108.356 16.8654 108.715 17.273 109.165 17.5496C109.618 17.8262 110.124 17.9645 110.683 17.9645C111.241 17.9645 111.745 17.8262 112.195 17.5496C112.649 17.273 113.007 16.8654 113.272 16.3269C113.539 15.7883 113.672 15.1277 113.672 14.3449Z" fill="white"/>
  <path d="M123.943 9.82477V18.865H122.862L117.837 11.767H117.747V18.865H116.631V9.82477H117.711L122.754 16.9404H122.844V9.82477H123.943Z" fill="white"/>
  <path d="M69.5174 12.6499C69.4183 12.3526 69.2878 12.0863 69.1257 11.8509C68.9666 11.6125 68.776 11.4095 68.5538 11.2417C68.3347 11.074 68.0856 10.946 67.8064 10.8577C67.5272 10.7694 67.2211 10.7253 66.8879 10.7253C66.3415 10.7253 65.8448 10.8636 65.3975 11.1402C64.9502 11.4168 64.5945 11.8244 64.3304 12.3629C64.0662 12.9015 63.9341 13.5621 63.9341 14.3449C63.9341 15.1277 64.0677 15.7883 64.3349 16.3269C64.602 16.8654 64.9637 17.273 65.42 17.5496C65.8763 17.8262 66.3896 17.9645 66.9599 17.9645C67.4882 17.9645 67.9535 17.8542 68.3557 17.6335C68.761 17.4098 69.0761 17.0949 69.3013 16.6888C69.5294 16.2798 69.6435 15.7986 69.6435 15.2454L69.9857 15.316H67.2121V14.3449H70.7241V15.316C70.7241 16.0606 70.562 16.708 70.2378 17.2583C69.9166 17.8086 69.4724 18.2353 68.905 18.5384C68.3407 18.8386 67.6923 18.9886 66.9599 18.9886C66.1434 18.9886 65.426 18.8003 64.8077 18.4236C64.1923 18.0469 63.712 17.5114 63.3668 16.8169C63.0246 16.1224 62.8535 15.2984 62.8535 14.3449C62.8535 13.6298 62.9511 12.9868 63.1462 12.4159C63.3443 11.8421 63.6235 11.3536 63.9837 10.9504C64.3439 10.5472 64.7701 10.2382 65.2624 10.0234C65.7547 9.80858 66.2965 9.70117 66.8879 9.70117C67.3741 9.70117 67.8274 9.77327 68.2477 9.91747C68.6709 10.0587 69.0476 10.2603 69.3778 10.5222C69.711 10.7812 69.9887 11.0916 70.2108 11.4536C70.4329 11.8126 70.586 12.2114 70.6701 12.6499H69.5174Z" stroke="white" stroke-width="0.2" stroke-miterlimit="10"/>
  <path d="M72.6366 18.865V9.82477H78.2018V10.7959H73.7532V13.8505H77.9137V14.8216H73.7532V17.8939H78.2739V18.865H72.6366Z" stroke="white" stroke-width="0.2" stroke-miterlimit="10"/>
  <path d="M79.7102 10.7959V9.82477H86.6262V10.7959H83.7265V18.865H82.6099V10.7959H79.7102Z" stroke="white" stroke-width="0.2" stroke-miterlimit="10"/>
  <path d="M93.0323 9.82477V18.865H91.9157V9.82477H93.0323Z" stroke="white" stroke-width="0.2" stroke-miterlimit="10"/>
  <path d="M94.767 10.7959V9.82477H101.683V10.7959H98.7833V18.865H97.6667V10.7959H94.767Z" stroke="white" stroke-width="0.2" stroke-miterlimit="10"/>
  <path d="M114.753 14.3449C114.753 15.2984 114.577 16.1224 114.226 16.8169C113.875 17.5114 113.393 18.0469 112.781 18.4236C112.168 18.8003 111.469 18.9886 110.683 18.9886C109.896 18.9886 109.197 18.8003 108.584 18.4236C107.972 18.0469 107.49 17.5114 107.139 16.8169C106.788 16.1224 106.612 15.2984 106.612 14.3449C106.612 13.3914 106.788 12.5675 107.139 11.873C107.49 11.1785 107.972 10.6429 108.584 10.2662C109.197 9.88951 109.896 9.70117 110.683 9.70117C111.469 9.70117 112.168 9.88951 112.781 10.2662C113.393 10.6429 113.875 11.1785 114.226 11.873C114.577 12.5675 114.753 13.3914 114.753 14.3449ZM113.672 14.3449C113.672 13.5621 113.539 12.9015 113.272 12.3629C113.007 11.8244 112.649 11.4168 112.195 11.1402C111.745 10.8636 111.241 10.7253 110.683 10.7253C110.124 10.7253 109.618 10.8636 109.165 11.1402C108.715 11.4168 108.356 11.8244 108.089 12.3629C107.825 12.9015 107.693 13.5621 107.693 14.3449C107.693 15.1277 107.825 15.7883 108.089 16.3269C108.356 16.8654 108.715 17.273 109.165 17.5496C109.618 17.8262 110.124 17.9645 110.683 17.9645C111.241 17.9645 111.745 17.8262 112.195 17.5496C112.649 17.273 113.007 16.8654 113.272 16.3269C113.539 15.7883 113.672 15.1277 113.672 14.3449Z" stroke="white" stroke-width="0.2" stroke-miterlimit="10"/>
  <path d="M123.943 9.82477V18.865H122.862L117.837 11.767H117.747V18.865H116.631V9.82477H117.711L122.754 16.9404H122.844V9.82477H123.943Z" stroke="white" stroke-width="0.2" stroke-miterlimit="10"/>
  <path d="M103.084 32.2747C99.5545 32.2747 96.6011 34.9583 96.6011 38.56C96.6011 42.1617 99.4825 44.8453 103.084 44.8453C106.614 44.8453 109.568 42.1617 109.568 38.56C109.568 34.9583 106.686 32.2747 103.084 32.2747ZM103.084 42.3736C101.139 42.3736 99.4825 40.8199 99.4825 38.56C99.4825 36.3001 101.139 34.7465 103.084 34.7465C105.029 34.7465 106.686 36.3001 106.686 38.56C106.758 40.8199 105.029 42.3736 103.084 42.3736ZM89.0372 32.2747C85.5075 32.2747 82.554 34.9583 82.554 38.56C82.554 42.1617 85.4354 44.8453 89.0372 44.8453C92.567 44.8453 95.5205 42.1617 95.5205 38.56C95.4485 34.9583 92.567 32.2747 89.0372 32.2747ZM89.0372 42.3736C87.0923 42.3736 85.4354 40.8199 85.4354 38.56C85.4354 36.3001 87.0923 34.7465 89.0372 34.7465C90.9822 34.7465 92.6391 36.3001 92.6391 38.56C92.6391 40.8199 90.9822 42.3736 89.0372 42.3736ZM72.2528 34.1815V36.8651H78.8081C78.592 38.3482 78.0877 39.4781 77.2953 40.255C76.3589 41.173 74.8461 42.2324 72.2528 42.2324C68.2188 42.2324 65.1212 39.0544 65.1212 35.0996C65.1212 31.1448 68.2908 27.9668 72.2528 27.9668C74.4139 27.9668 75.9987 28.8143 77.1513 29.8736L79.0963 27.9668C77.4394 26.4131 75.2783 25.2832 72.2528 25.2832C66.7781 25.2832 62.0957 29.6617 62.0957 35.0996C62.0957 40.4668 66.706 44.916 72.2528 44.916C75.2063 44.916 77.4394 43.9273 79.2403 42.1617C81.0412 40.3962 81.6175 37.9244 81.6175 35.8764C81.6175 35.2408 81.5455 34.6759 81.4734 34.1815H72.2528ZM140.759 36.3002C140.255 34.8877 138.598 32.2747 135.284 32.2747C131.971 32.2747 129.233 34.8171 129.233 38.56C129.233 42.0911 131.971 44.8453 135.645 44.8453C138.598 44.8453 140.327 43.0798 140.975 42.0205L138.814 40.6081C138.094 41.6674 137.085 42.3736 135.645 42.3736C134.204 42.3736 133.195 41.738 132.547 40.4668L141.119 37.0064L140.759 36.3002ZM132.043 38.4188C131.971 35.947 133.988 34.7465 135.429 34.7465C136.581 34.7465 137.518 35.3115 137.806 36.0883L132.043 38.4188ZM125.055 44.4922H127.865V25.9894H125.055V44.4922ZM120.373 33.6872H120.301C119.653 32.9809 118.428 32.2747 116.915 32.2747C113.674 32.2747 110.72 35.029 110.72 38.6307C110.72 42.1617 113.674 44.916 116.915 44.916C118.428 44.916 119.653 44.2804 120.301 43.5035H120.373V44.4216C120.373 46.8228 119.076 48.0939 116.915 48.0939C115.186 48.0939 114.106 46.8934 113.674 45.8341L111.224 46.8228C111.945 48.5177 113.818 50.5657 116.915 50.5657C120.229 50.5657 123.038 48.6589 123.038 43.9979V32.6985H120.373V33.6872ZM117.131 42.3736C115.186 42.3736 113.53 40.7493 113.53 38.56C113.53 36.3708 115.186 34.7465 117.131 34.7465C119.076 34.7465 120.589 36.3708 120.589 38.56C120.589 40.8199 119.076 42.3736 117.131 42.3736ZM154.014 25.9894H147.242V44.5629H150.052V37.5713H154.014C157.111 37.5713 160.209 35.3821 160.209 31.7804C160.209 28.1787 157.184 25.9894 154.014 25.9894ZM154.086 34.8877H150.052V28.5318H154.086C156.175 28.5318 157.4 30.2267 157.4 31.7098C157.4 33.1928 156.247 34.8877 154.086 34.8877ZM171.591 32.2747C169.574 32.2747 167.413 33.1222 166.548 35.0996L169.069 36.1589C169.574 35.0996 170.582 34.8171 171.663 34.8171C173.104 34.8171 174.616 35.6646 174.616 37.2182V37.4301C174.112 37.1476 173.031 36.7239 171.663 36.7239C168.997 36.7239 166.188 38.2069 166.188 40.8905C166.188 43.3623 168.421 44.9866 170.87 44.9866C172.743 44.9866 173.824 44.1391 174.472 43.1504H174.544V44.5629H177.282V37.3595C177.282 34.1109 174.76 32.2747 171.591 32.2747ZM171.231 42.3736C170.294 42.3736 168.997 41.9499 168.997 40.8199C168.997 39.4075 170.582 38.8425 172.023 38.8425C173.248 38.8425 173.824 39.125 174.616 39.4781C174.328 41.173 172.815 42.3736 171.231 42.3736ZM187.223 32.6278L183.981 40.6787H183.909L180.523 32.6278H177.498L182.54 43.8566L179.659 50.142H182.612L190.392 32.6278H187.223ZM161.794 44.4922H164.603V25.9894H161.794V44.4922Z" fill="white"/>
  <path d="M31.3356 28.8145L15.2715 45.5517C15.7757 47.3879 17.4326 48.7297 19.4496 48.7297C20.242 48.7297 21.0344 48.5178 21.6827 48.1647H21.7547L39.9079 37.9246L31.3356 28.8145Z" fill="#EA4335"/>
  <path d="M47.6159 25.9902L39.764 21.541L30.9756 29.1681L39.836 37.8546L47.6159 33.476C48.9846 32.7698 49.9211 31.3574 49.9211 29.7331C49.9211 28.1088 48.9846 26.6964 47.6159 25.9902Z" fill="#FBBC04"/>
  <path d="M15.272 13.7715C15.2 14.1246 15.1279 14.4777 15.1279 14.9014V44.4918C15.1279 44.8449 15.2 45.2687 15.272 45.6218L31.9124 29.3082L15.272 13.7715Z" fill="#4285F4"/>
  <path d="M31.4799 29.6615L39.8361 21.4695L21.6829 11.2293C21.0346 10.8762 20.2422 10.5938 19.4498 10.5938C17.4328 10.5938 15.7039 11.9356 15.2717 13.7717L31.4799 29.6615Z" fill="#34A853"/>
</svg>