<svg xmlns="http://www.w3.org/2000/svg" width="33" height="33" viewBox="0 0 33 33" fill="none">
  <path d="M16.6816 10.8262C15.495 10.8262 14.3349 11.1781 13.3482 11.8374C12.3615 12.4966 11.5925 13.4337 11.1384 14.5301C10.6842 15.6264 10.5654 16.8328 10.7969 17.9967C11.0284 19.1606 11.5999 20.2297 12.439 21.0688C13.2781 21.9079 14.3472 22.4794 15.5111 22.7109C16.675 22.9424 17.8814 22.8236 18.9777 22.3694C20.0741 21.9153 21.0112 21.1463 21.6705 20.1596C22.3297 19.1729 22.6816 18.0129 22.6816 16.8262C22.68 15.2354 22.0473 13.7102 20.9225 12.5854C19.7976 11.4605 18.2724 10.8278 16.6816 10.8262ZM16.6816 20.8262C15.8905 20.8262 15.1172 20.5916 14.4594 20.1521C13.8016 19.7125 13.2889 19.0878 12.9861 18.3569C12.6834 17.626 12.6042 16.8217 12.7585 16.0458C12.9128 15.2699 13.2938 14.5572 13.8532 13.9977C14.4126 13.4383 15.1254 13.0574 15.9013 12.903C16.6772 12.7487 17.4815 12.8279 18.2124 13.1307C18.9433 13.4334 19.568 13.9461 20.0075 14.6039C20.447 15.2617 20.6816 16.035 20.6816 16.8262C20.6816 17.887 20.2602 18.9045 19.5101 19.6546C18.7599 20.4047 17.7425 20.8262 16.6816 20.8262ZM22.6816 3.82617H10.6816C8.82573 3.82816 7.04641 4.56629 5.73409 5.87862C4.42176 7.19094 3.68363 8.97027 3.68164 10.8262V22.8262C3.68363 24.6821 4.42176 26.4614 5.73409 27.7737C7.04641 29.0861 8.82573 29.8242 10.6816 29.8262H22.6816C24.5375 29.8242 26.3169 29.0861 27.6292 27.7737C28.9415 26.4614 29.6797 24.6821 29.6816 22.8262V10.8262C29.6797 8.97027 28.9415 7.19094 27.6292 5.87862C26.3169 4.56629 24.5375 3.82816 22.6816 3.82617ZM27.6816 22.8262C27.6816 24.1523 27.1549 25.424 26.2172 26.3617C25.2795 27.2994 24.0077 27.8262 22.6816 27.8262H10.6816C9.35556 27.8262 8.08379 27.2994 7.14611 26.3617C6.20842 25.424 5.68164 24.1523 5.68164 22.8262V10.8262C5.68164 9.50009 6.20842 8.22832 7.14611 7.29064C8.08379 6.35296 9.35556 5.82617 10.6816 5.82617H22.6816C24.0077 5.82617 25.2795 6.35296 26.2172 7.29064C27.1549 8.22832 27.6816 9.50009 27.6816 10.8262V22.8262ZM24.6816 10.3262C24.6816 10.6228 24.5937 10.9129 24.4288 11.1595C24.264 11.4062 24.0298 11.5985 23.7557 11.712C23.4816 11.8255 23.18 11.8552 22.889 11.7973C22.598 11.7395 22.3308 11.5966 22.121 11.3868C21.9112 11.1771 21.7683 10.9098 21.7105 10.6188C21.6526 10.3278 21.6823 10.0262 21.7958 9.75215C21.9094 9.47806 22.1016 9.24379 22.3483 9.07897C22.595 8.91414 22.885 8.82617 23.1816 8.82617C23.5795 8.82617 23.961 8.98421 24.2423 9.26551C24.5236 9.54682 24.6816 9.92835 24.6816 10.3262Z" fill="#3634A3"/>
</svg>