<svg xmlns="http://www.w3.org/2000/svg" width="33" height="33" viewBox="0 0 33 33" fill="none">
  <path d="M27.5133 3.82617H5.51331C4.98287 3.82617 4.47416 4.03689 4.09909 4.41196C3.72402 4.78703 3.51331 5.29574 3.51331 5.82617V27.8262C3.51331 28.3566 3.72402 28.8653 4.09909 29.2404C4.47416 29.6155 4.98287 29.8262 5.51331 29.8262H27.5133C28.0437 29.8262 28.5524 29.6155 28.9275 29.2404C29.3026 28.8653 29.5133 28.3566 29.5133 27.8262V5.82617C29.5133 5.29574 29.3026 4.78703 28.9275 4.41196C28.5524 4.03689 28.0437 3.82617 27.5133 3.82617ZM27.5133 27.8262H5.51331V5.82617H27.5133V27.8262ZM12.5133 14.8262V22.8262C12.5133 23.0914 12.4079 23.3457 12.2204 23.5333C12.0329 23.7208 11.7785 23.8262 11.5133 23.8262C11.2481 23.8262 10.9937 23.7208 10.8062 23.5333C10.6187 23.3457 10.5133 23.0914 10.5133 22.8262V14.8262C10.5133 14.561 10.6187 14.3066 10.8062 14.1191C10.9937 13.9315 11.2481 13.8262 11.5133 13.8262C11.7785 13.8262 12.0329 13.9315 12.2204 14.1191C12.4079 14.3066 12.5133 14.561 12.5133 14.8262ZM23.5133 18.3262V22.8262C23.5133 23.0914 23.4079 23.3457 23.2204 23.5333C23.0329 23.7208 22.7785 23.8262 22.5133 23.8262C22.2481 23.8262 21.9937 23.7208 21.8062 23.5333C21.6187 23.3457 21.5133 23.0914 21.5133 22.8262V18.3262C21.5133 17.6631 21.2499 17.0272 20.7811 16.5584C20.3122 16.0896 19.6763 15.8262 19.0133 15.8262C18.3503 15.8262 17.7144 16.0896 17.2455 16.5584C16.7767 17.0272 16.5133 17.6631 16.5133 18.3262V22.8262C16.5133 23.0914 16.4079 23.3457 16.2204 23.5333C16.0329 23.7208 15.7785 23.8262 15.5133 23.8262C15.2481 23.8262 14.9937 23.7208 14.8062 23.5333C14.6187 23.3457 14.5133 23.0914 14.5133 22.8262V14.8262C14.5145 14.5812 14.6056 14.3453 14.7693 14.163C14.933 13.9808 15.1579 13.865 15.4013 13.8375C15.6447 13.8101 15.8897 13.8729 16.0898 14.0142C16.29 14.1554 16.4313 14.3652 16.4871 14.6037C17.1635 14.1448 17.9522 13.8788 18.7685 13.8343C19.5847 13.7898 20.3977 13.9686 21.12 14.3512C21.8423 14.7339 22.4468 15.3062 22.8684 16.0065C23.2901 16.7068 23.513 17.5087 23.5133 18.3262ZM13.0133 11.3262C13.0133 11.6228 12.9253 11.9129 12.7605 12.1595C12.5957 12.4062 12.3614 12.5985 12.0873 12.712C11.8132 12.8255 11.5116 12.8552 11.2207 12.7973C10.9297 12.7395 10.6624 12.5966 10.4526 12.3868C10.2429 12.1771 10.1 11.9098 10.0421 11.6188C9.98425 11.3278 10.014 11.0262 10.1275 10.7521C10.241 10.4781 10.4333 10.2438 10.68 10.079C10.9266 9.91414 11.2166 9.82617 11.5133 9.82617C11.9111 9.82617 12.2927 9.98421 12.574 10.2655C12.8553 10.5468 13.0133 10.9283 13.0133 11.3262Z" fill="#3634A3"/>
</svg>