<svg xmlns="http://www.w3.org/2000/svg" width="16" height="20" viewBox="0 0 16 20" fill="none">
  <path d="M7.79065 4.42594C7.11011 4.42594 6.44485 4.62774 5.879 5.00583C5.31315 5.38392 4.87212 5.92131 4.61169 6.55005C4.35125 7.17879 4.28311 7.87064 4.41588 8.5381C4.54865 9.20557 4.87636 9.81868 5.35758 10.2999C5.83879 10.7811 6.4519 11.1088 7.11937 11.2416C7.78683 11.3744 8.47868 11.3062 9.10742 11.0458C9.73616 10.7854 10.2736 10.3443 10.6516 9.77847C11.0297 9.21262 11.2315 8.54736 11.2315 7.86682C11.2315 6.95424 10.869 6.07904 10.2237 5.43375C9.57843 4.78846 8.70323 4.42594 7.79065 4.42594ZM7.79065 9.93135C7.38232 9.93135 6.98317 9.81027 6.64366 9.58342C6.30415 9.35656 6.03953 9.03413 5.88327 8.65688C5.72701 8.27964 5.68613 7.86453 5.76579 7.46405C5.84545 7.06357 6.04208 6.69571 6.33081 6.40698C6.61953 6.11825 6.9874 5.92162 7.38788 5.84196C7.78836 5.7623 8.20347 5.80318 8.58071 5.95944C8.95795 6.1157 9.28039 6.38032 9.50724 6.71983C9.7341 7.05934 9.85518 7.4585 9.85518 7.86682C9.85518 8.41437 9.63767 8.93949 9.25049 9.32666C8.86332 9.71384 8.3382 9.93135 7.79065 9.93135ZM7.79065 0.296875C5.78367 0.299152 3.85955 1.09743 2.4404 2.51658C1.02126 3.93572 0.22298 5.85985 0.220703 7.86682C0.220703 10.5679 1.46888 13.4307 3.83363 16.1465C4.89619 17.3736 6.0921 18.4786 7.39925 19.4411C7.51496 19.5222 7.65281 19.5656 7.79409 19.5656C7.93537 19.5656 8.07322 19.5222 8.18893 19.4411C9.49367 18.4782 10.6873 17.3732 11.7477 16.1465C14.109 13.4307 15.3606 10.5679 15.3606 7.86682C15.3583 5.85985 14.56 3.93572 13.1409 2.51658C11.7217 1.09743 9.79762 0.299152 7.79065 0.296875ZM7.79065 18.0174C6.3687 16.8991 1.59706 12.7916 1.59706 7.86682C1.59706 6.22418 2.24959 4.64881 3.41112 3.48729C4.57264 2.32577 6.14801 1.67323 7.79065 1.67323C9.43329 1.67323 11.0087 2.32577 12.1702 3.48729C13.3317 4.64881 13.9842 6.22418 13.9842 7.86682C13.9842 12.7899 9.21259 16.8991 7.79065 18.0174Z" fill="#26262A"/>
</svg>