<svg xmlns="http://www.w3.org/2000/svg" width="33" height="33" viewBox="0 0 33 33" fill="none">
<path d="M27.5869 15.8241C27.5869 18.6453 26.5994 21.2241 24.8082 23.0878C23.1357 24.8241 20.8682 25.8241 18.5869 25.8241C16.3519 25.8241 14.8594 25.0916 13.9082 24.3241L12.5607 30.0528C12.5091 30.2723 12.3848 30.468 12.2081 30.608C12.0313 30.748 11.8124 30.8241 11.5869 30.8241C11.5095 30.824 11.4324 30.8152 11.3569 30.7978C11.2286 30.7683 11.1073 30.7138 11.0001 30.6374C10.8929 30.5609 10.8018 30.4641 10.7321 30.3524C10.6624 30.2406 10.6155 30.1162 10.594 29.9863C10.5725 29.8564 10.5769 29.7235 10.6069 29.5953L14.6069 12.5953C14.6676 12.3371 14.8284 12.1135 15.0539 11.9738C15.2794 11.834 15.5512 11.7896 15.8094 11.8503C16.0677 11.911 16.2912 12.0718 16.431 12.2973C16.5707 12.5228 16.6151 12.7946 16.5544 13.0528L14.4419 22.0278C14.8369 22.5741 15.9994 23.8241 18.5869 23.8241C22.0282 23.8241 25.5869 20.8316 25.5869 15.8241C25.5864 14.4439 25.2684 13.0823 24.6576 11.8447C24.0469 10.607 23.1596 9.52639 22.0645 8.6864C20.9694 7.8464 19.6957 7.26952 18.3421 7.00036C16.9884 6.73121 15.591 6.77698 14.2578 7.13416C12.9247 7.49133 11.6915 8.15033 10.6537 9.0602C9.61593 9.97007 8.8013 11.1064 8.27283 12.3814C7.74435 13.6564 7.51619 15.0358 7.60598 16.4131C7.69578 17.7903 8.10112 19.1285 8.79066 20.3241C8.91505 20.5531 8.94508 20.8217 8.87436 21.0726C8.80364 21.3235 8.63775 21.5368 8.41204 21.6672C8.18633 21.7976 7.91864 21.8346 7.66599 21.7706C7.41333 21.7065 7.19569 21.5463 7.05942 21.3241C6.2162 19.8628 5.7204 18.2272 5.61035 16.5437C5.50029 14.8603 5.77894 13.174 6.42474 11.6155C7.07054 10.0569 8.06618 8.66773 9.33466 7.55545C10.6031 6.44317 12.1105 5.63757 13.7401 5.20095C15.3697 4.76432 17.0778 4.70838 18.7325 5.03745C20.3872 5.36653 21.944 6.07179 23.2825 7.09869C24.6211 8.1256 25.7054 9.44663 26.4518 10.9596C27.1982 12.4726 27.5866 14.137 27.5869 15.8241Z" fill="#3634A3"/>
</svg>
