<svg width="205" height="62" viewBox="0 0 205 62" fill="none" xmlns="http://www.w3.org/2000/svg">
<path d="M203.057 54.7405C203.057 57.9674 200.467 60.5812 197.263 60.5812H7.66566C4.46361 60.5812 1.8645 57.9674 1.8645 54.7405V8.1624C1.8645 4.93703 4.46361 2.31403 7.66566 2.31403H197.262C200.467 2.31403 203.055 4.93703 203.055 8.1624L203.057 54.7405Z" fill="black"/>
<path d="M74.6393 16.2198C74.6393 18.0147 74.1058 19.3659 73.0405 20.2733C72.0538 21.1105 70.6514 21.5299 68.8351 21.5299C67.9345 21.5299 67.1638 21.4902 66.5186 21.4109V11.6036C67.3602 11.4664 68.2669 11.3962 69.2461 11.3962C70.9763 11.3962 72.2804 11.776 73.1599 12.5354C74.1451 13.394 74.6393 14.6216 74.6393 16.2198ZM72.9695 16.264C72.9695 15.1005 72.6642 14.2083 72.0538 13.5861C71.4433 12.9655 70.5517 12.6544 69.3776 12.6544C68.8789 12.6544 68.4543 12.6879 68.1022 12.7581V20.2138C68.2971 20.2443 68.6538 20.258 69.1721 20.258C70.384 20.258 71.3194 19.9179 71.9782 19.2378C72.637 18.5576 72.9695 17.5664 72.9695 16.264Z" fill="white"/>
<path d="M83.4924 17.7885C83.4924 18.8942 83.1796 19.8 82.554 20.5107C81.8982 21.2411 81.0293 21.6056 79.9443 21.6056C78.8986 21.6056 78.066 21.2564 77.445 20.5549C76.8254 19.8549 76.5156 18.9719 76.5156 17.9075C76.5156 16.7942 76.8345 15.8808 77.4752 15.1716C78.1159 14.4625 78.9772 14.1072 80.0622 14.1072C81.1079 14.1072 81.9481 14.4564 82.5842 15.1564C83.1887 15.8365 83.4924 16.7149 83.4924 17.7885ZM81.8498 17.8404C81.8498 17.177 81.7078 16.6082 81.4252 16.1339C81.0928 15.5605 80.6198 15.2738 80.0048 15.2738C79.3686 15.2738 78.885 15.5605 78.5526 16.1339C78.2685 16.6082 78.128 17.1862 78.128 17.8694C78.128 18.5327 78.27 19.1016 78.5526 19.5758C78.8956 20.1492 79.3731 20.4359 79.9897 20.4359C80.5941 20.4359 81.0686 20.1447 81.4101 19.5606C81.7033 19.0772 81.8498 18.5038 81.8498 17.8404Z" fill="white"/>
<path d="M95.3639 14.2537L93.135 21.4425H91.6843L90.761 18.3208C90.5268 17.5416 90.3364 16.7669 90.1883 15.9983H90.1596C90.0221 16.7882 89.8317 17.5614 89.5869 18.3208L88.6062 21.4425H87.1389L85.043 14.2537H86.6704L87.4759 17.6712C87.6708 18.4794 87.831 19.2496 87.9594 19.9785H87.9881C88.106 19.3777 88.3009 18.6121 88.5759 17.6864L89.5869 14.2552H90.8774L91.846 17.6132C92.0802 18.4322 92.2706 19.2206 92.4172 19.98H92.461C92.5683 19.2404 92.73 18.452 92.9446 17.6132L93.8089 14.2552H95.3639V14.2537Z" fill="white"/>
<path d="M103.574 21.4431H101.99V17.3256C101.99 16.0568 101.513 15.4224 100.555 15.4224C100.085 15.4224 99.7055 15.5962 99.4109 15.9455C99.1192 16.2947 98.9711 16.7064 98.9711 17.1777V21.4416H97.3875V16.3084C97.3875 15.6771 97.3679 14.9923 97.3301 14.2512H98.7218L98.7959 15.3751H98.8397C99.024 15.0259 99.2991 14.7377 99.6602 14.5074C100.089 14.239 100.57 14.1033 101.096 14.1033C101.761 14.1033 102.314 14.3198 102.753 14.7544C103.3 15.2867 103.574 16.0812 103.574 17.1365V21.4431Z" fill="white"/>
<path d="M107.942 21.4423H106.359V10.9548H107.942V21.4423Z" fill="white"/>
<path d="M117.265 17.7883C117.265 18.894 116.952 19.7998 116.326 20.5105C115.67 21.2409 114.8 21.6054 113.717 21.6054C112.669 21.6054 111.837 21.2562 111.217 20.5547C110.598 19.8547 110.288 18.9717 110.288 17.9073C110.288 16.794 110.607 15.8806 111.247 15.1714C111.888 14.4623 112.749 14.107 113.833 14.107C114.88 14.107 115.719 14.4562 116.356 15.1562C116.961 15.8363 117.265 16.7147 117.265 17.7883ZM115.621 17.8402C115.621 17.1768 115.479 16.608 115.196 16.1337C114.865 15.5603 114.391 15.2736 113.777 15.2736C113.139 15.2736 112.656 15.5603 112.325 16.1337C112.041 16.608 111.9 17.186 111.9 17.8692C111.9 18.5325 112.042 19.1014 112.325 19.5756C112.668 20.149 113.145 20.4357 113.762 20.4357C114.366 20.4357 114.839 20.1445 115.181 19.5604C115.475 19.077 115.621 18.5036 115.621 17.8402Z" fill="white"/>
<path d="M124.929 21.4422H123.507L123.389 20.6142H123.345C122.859 21.2745 122.165 21.6054 121.265 21.6054C120.592 21.6054 120.048 21.3873 119.639 20.9542C119.267 20.5608 119.081 20.0713 119.081 19.4902C119.081 18.6118 119.444 17.9424 120.174 17.4788C120.902 17.0152 121.926 16.7879 123.246 16.7986V16.6644C123.246 15.7174 122.753 15.2446 121.766 15.2446C121.064 15.2446 120.444 15.4231 119.909 15.7769L119.587 14.7277C120.249 14.3144 121.067 14.107 122.031 14.107C123.892 14.107 124.826 15.0982 124.826 17.0807V19.7281C124.826 20.4464 124.861 21.0183 124.929 21.4422ZM123.285 18.9717V17.8631C121.538 17.8326 120.665 18.316 120.665 19.3118C120.665 19.687 120.764 19.9676 120.968 20.1551C121.172 20.3427 121.432 20.4357 121.742 20.4357C122.09 20.4357 122.415 20.3244 122.711 20.1033C123.008 19.8806 123.191 19.5985 123.259 19.2523C123.276 19.1746 123.285 19.08 123.285 18.9717Z" fill="white"/>
<path d="M133.928 21.4423H132.522L132.448 20.2878H132.404C131.956 21.1662 131.191 21.6054 130.117 21.6054C129.258 21.6054 128.544 21.2654 127.977 20.5852C127.41 19.9051 127.128 19.0221 127.128 17.9378C127.128 16.7742 127.434 15.8318 128.051 15.112C128.648 14.441 129.379 14.1055 130.25 14.1055C131.206 14.1055 131.876 14.4303 132.256 15.0815H132.287V10.9548H133.872V19.5055C133.872 20.2055 133.89 20.8506 133.928 21.4423ZM132.287 18.4106V17.2119C132.287 17.0045 132.271 16.8368 132.243 16.7087C132.154 16.3244 131.962 16.0011 131.67 15.7403C131.375 15.4795 131.02 15.3484 130.611 15.3484C130.02 15.3484 129.558 15.5847 129.218 16.059C128.881 16.5333 128.71 17.1387 128.71 17.8783C128.71 18.589 128.872 19.1654 129.196 19.6092C129.539 20.082 130.002 20.3183 130.581 20.3183C131.1 20.3183 131.516 20.1216 131.832 19.7266C132.137 19.3622 132.287 18.923 132.287 18.4106Z" fill="white"/>
<path d="M147.472 17.7883C147.472 18.894 147.159 19.7998 146.533 20.5105C145.878 21.2409 145.01 21.6054 143.924 21.6054C142.88 21.6054 142.047 21.2562 141.424 20.5547C140.805 19.8547 140.495 18.9717 140.495 17.9073C140.495 16.794 140.814 15.8806 141.455 15.1714C142.095 14.4623 142.957 14.107 144.043 14.107C145.087 14.107 145.929 14.4562 146.564 15.1562C147.168 15.8363 147.472 16.7147 147.472 17.7883ZM145.831 17.8402C145.831 17.1768 145.689 16.608 145.406 16.1337C145.072 15.5603 144.601 15.2736 143.984 15.2736C143.349 15.2736 142.866 15.5603 142.532 16.1337C142.248 16.608 142.107 17.186 142.107 17.8692C142.107 18.5325 142.249 19.1014 142.532 19.5756C142.875 20.149 143.353 20.4357 143.969 20.4357C144.573 20.4357 145.049 20.1445 145.391 19.5604C145.683 19.077 145.831 18.5036 145.831 17.8402Z" fill="white"/>
<path d="M155.987 21.4431H154.404V17.3256C154.404 16.0568 153.927 15.4224 152.967 15.4224C152.497 15.4224 152.118 15.5962 151.825 15.9455C151.532 16.2947 151.385 16.7064 151.385 17.1777V21.4416H149.8V16.3084C149.8 15.6771 149.782 14.9923 149.744 14.2512H151.134L151.208 15.3751H151.252C151.438 15.0259 151.713 14.7377 152.073 14.5074C152.503 14.239 152.982 14.1033 153.51 14.1033C154.173 14.1033 154.726 14.3198 155.166 14.7544C155.715 15.2867 155.987 16.0812 155.987 17.1365V21.4431Z" fill="white"/>
<path d="M166.645 15.4501H164.901V18.9424C164.901 19.8299 165.211 20.2737 165.825 20.2737C166.109 20.2737 166.344 20.2493 166.53 20.199L166.571 21.4113C166.258 21.5303 165.847 21.5898 165.341 21.5898C164.715 21.5898 164.229 21.3976 163.877 21.0133C163.523 20.629 163.348 19.9824 163.348 19.075V15.4501H162.307V14.253H163.348V12.9354L164.9 12.4626V14.2515H166.644L166.645 15.4501Z" fill="white"/>
<path d="M175.028 21.4423H173.443V17.3553C173.443 16.0666 172.966 15.4216 172.009 15.4216C171.275 15.4216 170.773 15.7952 170.498 16.5424C170.451 16.6995 170.424 16.8917 170.424 17.1174V21.4407H168.842V10.9548H170.424V15.2874H170.454C170.953 14.4989 171.668 14.1055 172.594 14.1055C173.25 14.1055 173.792 14.322 174.223 14.7567C174.759 15.298 175.028 16.1032 175.028 17.1677V21.4423Z" fill="white"/>
<path d="M183.677 17.508C183.677 17.7947 183.656 18.0356 183.618 18.2324H178.868C178.89 18.943 179.116 19.4844 179.556 19.8595C179.958 20.195 180.476 20.3628 181.111 20.3628C181.814 20.3628 182.454 20.2499 183.032 20.0227L183.279 21.1329C182.604 21.4288 181.809 21.5767 180.889 21.5767C179.786 21.5767 178.917 21.2488 178.288 20.5931C177.657 19.9373 177.344 19.0574 177.344 17.9533C177.344 16.869 177.635 15.9662 178.223 15.2464C178.837 14.4778 179.666 14.0935 180.714 14.0935C181.738 14.0935 182.516 14.4778 183.042 15.2464C183.467 15.8564 183.677 16.6113 183.677 17.508ZM182.166 17.0947C182.178 16.6204 182.074 16.2117 181.859 15.8671C181.584 15.4233 181.165 15.2007 180.599 15.2007C180.082 15.2007 179.66 15.4172 179.338 15.8518C179.075 16.198 178.92 16.6113 178.868 17.0947H182.166Z" fill="white"/>
<path d="M77.8252 33.0652L74.748 44.1384H71.5474L67.2573 27.9329H70.7725L73.3218 39.6687H73.4116L76.4438 27.9329H79.3076L82.3398 39.6687H82.4297L84.9902 27.9329H88.5054L84.2041 44.1384H81.0034L77.9263 33.0652H77.8252ZM95.9494 34.2668C95.2381 34.2668 94.6429 34.5102 94.1637 34.9968C93.6921 35.4835 93.4263 36.1049 93.3664 36.8611H98.4762C98.4388 36.0899 98.188 35.4648 97.7238 34.9856C97.2671 34.5064 96.6756 34.2668 95.9494 34.2668ZM98.5212 40.4548H101.531C101.351 41.6378 100.76 42.5924 99.7565 43.3186C98.7607 44.0374 97.5216 44.3967 96.0392 44.3967C94.1899 44.3967 92.7375 43.8427 91.6818 42.7346C90.6336 41.6265 90.1095 40.1067 90.1095 38.175C90.1095 36.2509 90.6336 34.7161 91.6818 33.5706C92.73 32.4176 94.1413 31.8411 95.9157 31.8411C97.6601 31.8411 99.049 32.3876 100.082 33.4807C101.115 34.5738 101.632 36.0375 101.632 37.8718V38.8713H93.3327V39.0735C93.3327 39.9345 93.5835 40.6345 94.0851 41.1736C94.5942 41.7052 95.2643 41.9709 96.0954 41.9709C96.6943 41.9709 97.2109 41.8362 97.6452 41.5667C98.0794 41.2896 98.3714 40.919 98.5212 40.4548ZM112.322 44.3293C111.453 44.3293 110.689 44.1309 110.031 43.7341C109.379 43.3373 108.885 42.7833 108.548 42.072H108.481V44.1384H105.246V27.9329H108.526V34.1882H108.593C108.93 33.4695 109.42 32.9117 110.064 32.5149C110.708 32.1106 111.457 31.9084 112.31 31.9084C113.83 31.9084 115.024 32.4587 115.893 33.5593C116.769 34.6599 117.207 36.1798 117.207 38.1189C117.207 40.0505 116.773 41.5704 115.904 42.6785C115.036 43.7791 113.841 44.3293 112.322 44.3293ZM111.187 34.5364C110.394 34.5364 109.75 34.8658 109.256 35.5247C108.762 36.1835 108.514 37.0483 108.514 38.1189C108.514 39.2045 108.758 40.073 109.244 40.7244C109.739 41.3682 110.386 41.6902 111.187 41.6902C112.011 41.6902 112.659 41.372 113.13 40.7356C113.609 40.0917 113.849 39.2195 113.849 38.1189C113.849 37.0258 113.609 36.1573 113.13 35.5134C112.651 34.8621 112.003 34.5364 111.187 34.5364ZM126.828 39.5227H130.096C130.171 40.1816 130.519 40.7169 131.14 41.1287C131.769 41.533 132.537 41.7351 133.443 41.7351C134.341 41.7351 135.071 41.5442 135.632 41.1624C136.201 40.773 136.486 40.2789 136.486 39.6799C136.486 39.1558 136.276 38.7328 135.857 38.4109C135.438 38.0889 134.738 37.8194 133.757 37.6023L131.646 37.1418C128.673 36.5055 127.187 34.9968 127.187 32.616C127.187 31.1335 127.764 29.9356 128.917 29.0222C130.077 28.1088 131.567 27.6521 133.386 27.6521C135.258 27.6521 136.752 28.0976 137.867 28.9885C138.983 29.872 139.556 31.0512 139.586 32.5261H136.407C136.355 31.8448 136.052 31.3095 135.498 30.9202C134.951 30.5234 134.251 30.325 133.398 30.325C132.559 30.325 131.881 30.5084 131.365 30.8752C130.856 31.2421 130.601 31.725 130.601 32.324C130.601 32.8181 130.807 33.2187 131.219 33.5256C131.638 33.8326 132.316 34.0946 133.252 34.3118L135.217 34.7273C136.842 35.0717 138.025 35.6108 138.766 36.3445C139.507 37.0707 139.878 38.0515 139.878 39.2869C139.878 40.8591 139.286 42.1095 138.103 43.0378C136.92 43.9587 135.322 44.4192 133.308 44.4192C131.354 44.4192 129.796 43.9849 128.636 43.1165C127.483 42.2405 126.88 41.0426 126.828 39.5227ZM143.582 44.1384V32.0994H146.861V44.1384H143.582ZM146.468 30.28C146.131 30.6095 145.716 30.7742 145.221 30.7742C144.727 30.7742 144.312 30.6095 143.975 30.28C143.638 29.9506 143.47 29.55 143.47 29.0784C143.47 28.5992 143.638 28.1986 143.975 27.8767C144.312 27.5473 144.727 27.3826 145.221 27.3826C145.716 27.3826 146.131 27.5473 146.468 27.8767C146.805 28.1986 146.973 28.5992 146.973 29.0784C146.973 29.55 146.805 29.9506 146.468 30.28ZM151.767 29.3254H155.046V32.0994H157.27V34.5701H155.046V40.3313C155.046 41.2372 155.518 41.6902 156.461 41.6902C156.768 41.6902 157.034 41.6715 157.259 41.634V44.0486C156.877 44.1384 156.357 44.1833 155.698 44.1833C154.283 44.1833 153.272 43.9288 152.665 43.4197C152.067 42.9106 151.767 42.0683 151.767 40.8928V34.5701H150.071V32.0994H151.767V29.3254ZM166.129 34.2668C165.418 34.2668 164.823 34.5102 164.343 34.9968C163.872 35.4835 163.606 36.1049 163.546 36.8611H168.656C168.618 36.0899 168.368 35.4648 167.903 34.9856C167.447 34.5064 166.855 34.2668 166.129 34.2668ZM168.701 40.4548H171.711C171.531 41.6378 170.939 42.5924 169.936 43.3186C168.94 44.0374 167.701 44.3967 166.219 44.3967C164.37 44.3967 162.917 43.8427 161.861 42.7346C160.813 41.6265 160.289 40.1067 160.289 38.175C160.289 36.2509 160.813 34.7161 161.861 33.5706C162.91 32.4176 164.321 31.8411 166.095 31.8411C167.84 31.8411 169.229 32.3876 170.262 33.4807C171.295 34.5738 171.812 36.0375 171.812 37.8718V38.8713H163.512V39.0735C163.512 39.9345 163.763 40.6345 164.265 41.1736C164.774 41.7052 165.444 41.9709 166.275 41.9709C166.874 41.9709 167.391 41.8362 167.825 41.5667C168.259 41.2896 168.551 40.919 168.701 40.4548Z" fill="white"/>
<g clip-path="url(#clip0_120_2481)">
<path d="M50.5063 20.7224V39.5901C50.5063 43.7071 47.1798 47.0449 43.0758 47.0449H24.2721C20.1079 47.0449 16.7314 43.6579 16.7314 39.4785V20.7224C16.7314 16.543 20.1079 13.156 24.2721 13.156H42.9656C47.1298 13.156 50.5063 16.543 50.5063 20.7224Z" fill="white"/>
<path d="M33.6197 24.7868L24.9519 19.2467C24.1669 18.7446 23.1398 19.311 23.1398 20.2443V27.6027C23.1398 28.256 23.6675 28.7856 24.3187 28.7856C24.9698 28.7856 25.4975 28.256 25.4975 27.6027V22.4021L32.9864 27.1885C33.3728 27.4353 33.8666 27.4353 34.2539 27.1885L41.7427 22.4011V27.6027C41.7427 28.256 42.2705 28.7856 42.9216 28.7856C43.5728 28.7856 44.1005 28.256 44.1005 27.6027V20.2434C44.1005 19.3091 43.0724 18.7437 42.2884 19.2458L33.6206 24.7868H33.6197Z" fill="black"/>
<path d="M41.7407 38.6577H37.1552C36.504 38.6577 35.9763 39.1873 35.9763 39.8406V39.9588C35.9763 40.6122 36.504 41.1417 37.1552 41.1417H42.9196C43.5707 41.1417 44.0985 40.6122 44.0985 39.9588V34.1748C44.0985 33.5215 43.5707 32.9919 42.9196 32.9919C42.2684 32.9919 41.7407 33.5215 41.7407 34.1748V38.6577ZM24.3176 32.9919C23.6664 32.9919 23.1387 33.5215 23.1387 34.1748V39.9588C23.1387 40.6122 23.6664 41.1417 24.3176 41.1417H30.0819C30.7331 41.1417 31.2608 40.6122 31.2608 39.9588V39.8406C31.2608 39.1873 30.7331 38.6577 30.0819 38.6577H25.4964V34.1748C25.4964 33.5215 24.9687 32.9919 24.3176 32.9919Z" fill="black"/>
</g>
<defs>
<clipPath id="clip0_120_2481">
<rect width="33.7748" height="33.8889" fill="white" transform="translate(16.7314 13.156)"/>
</clipPath>
</defs>
</svg>
