<svg width="71" height="71" viewBox="0 0 71 71" fill="none" xmlns="http://www.w3.org/2000/svg">
<path d="M35.0995 65.9611H35.1001C43.0893 65.952 50.7482 62.7556 56.3965 57.0742C62.0448 51.3929 65.2214 43.6907 65.2305 35.6574V35.6568C65.2305 29.6638 63.4637 23.8052 60.1532 18.8218C56.8428 13.8383 52.1371 9.95374 46.6311 7.65972C41.125 5.36569 35.0661 4.76542 29.2207 5.93495C23.3753 7.10447 18.0064 9.99115 13.7927 14.2295C9.57898 18.4678 6.70976 23.8674 5.54737 29.7453C4.38499 35.6232 4.98154 41.7158 7.26171 47.2528C9.5419 52.7899 13.4035 57.5229 18.3585 60.8531C23.3136 64.1834 29.1395 65.9611 35.0995 65.9611ZM37.7932 51.4137H37.2932V51.9137V54.6232C37.2932 55.2101 37.0614 55.7724 36.6497 56.1865C36.238 56.6006 35.6804 56.8326 35.0995 56.8326C34.5186 56.8326 33.961 56.6006 33.5493 56.1865C33.1376 55.7724 32.9058 55.2101 32.9058 54.6232V51.9137V51.4137H32.4058H27.0183C26.4375 51.4137 25.8798 51.1816 25.4682 50.7676C25.0564 50.3534 24.8246 49.7911 24.8246 49.2042C24.8246 48.6173 25.0564 48.055 25.4682 47.6408C25.8798 47.2268 26.4375 46.9947 27.0183 46.9947H39.1401C40.3453 46.9947 41.5005 46.5131 42.3518 45.6569C43.203 44.8007 43.6807 43.6401 43.6807 42.4305C43.6807 41.2209 43.203 40.0603 42.3518 39.2042C41.5005 38.3479 40.3453 37.8663 39.1401 37.8663H31.0589C28.692 37.8663 26.4214 36.9206 24.7469 35.2362C23.0722 33.5518 22.1309 31.2665 22.1309 28.8831C22.1309 26.4997 23.0722 24.2145 24.7469 22.53C26.4214 20.8457 28.692 19.8999 31.0589 19.8999H32.4058H32.9058V19.3999V16.6905C32.9058 16.1035 33.1376 15.5412 33.5493 15.1271C33.961 14.7131 34.5186 14.481 35.0995 14.481C35.6804 14.481 36.238 14.7131 36.6497 15.1271C37.0614 15.5412 37.2932 16.1035 37.2932 16.6905V19.3999V19.8999H37.7932H43.1807C43.7615 19.8999 44.3192 20.132 44.7309 20.5461C45.1426 20.9602 45.3744 21.5225 45.3744 22.1094C45.3744 22.6964 45.1426 23.2587 44.7309 23.6728C44.3192 24.0868 43.7615 24.3189 43.1807 24.3189H31.0589C29.8537 24.3189 28.6985 24.8005 27.8472 25.6568C26.996 26.5129 26.5183 27.6736 26.5183 28.8831C26.5183 30.0927 26.996 31.2533 27.8472 32.1095C28.6985 32.9658 29.8537 33.4473 31.0589 33.4473H39.1401C41.507 33.4473 43.7776 34.3931 45.4521 36.0774C47.1268 37.7619 48.0681 40.0471 48.0681 42.4305C48.0681 44.8139 47.1268 47.0992 45.4521 48.7836C43.7776 50.468 41.507 51.4137 39.1401 51.4137H37.7932ZM15.9232 6.78476C21.5996 2.96975 28.2729 0.933649 35.0992 0.933594C44.2502 0.943381 53.0242 4.60417 59.4959 11.1136C65.9677 17.6233 69.6083 26.4501 69.6179 35.6573C69.6178 42.5254 67.593 49.239 63.7998 54.9491C60.0065 60.6594 54.6153 65.1095 48.3082 67.7373C42.0011 70.365 35.0612 71.0525 28.3658 69.713C21.6705 68.3734 15.52 65.0668 10.6923 60.2109C5.8646 55.3549 2.57656 49.1677 1.24444 42.4315C-0.0876862 35.6953 0.596035 28.7131 3.20902 22.3679C5.822 16.0227 10.2467 10.5999 15.9232 6.78476Z" fill="white" stroke="#15286D"/>
</svg>
