<svg width="62" height="59" viewBox="0 0 62 59" fill="none" xmlns="http://www.w3.org/2000/svg">
<g clip-path="url(#clip0_148_117)">
<path d="M0.000294951 25.5077V32.532C0.000294951 35.0345 2.06362 37.0821 4.58546 37.0821H5.33055C6.72042 40.836 9.11331 44.2628 12.2799 47.0782C12.3086 47.1208 12.3372 47.1351 12.3659 47.1635C12.3659 47.1635 12.3755 47.173 12.3946 47.1919C12.5092 47.2915 12.6381 47.391 12.7528 47.4905C15.16 49.6661 15.3606 52.1686 15.3749 52.6948V54.9983C15.3749 56.7899 16.8364 58.2402 18.6418 58.2402H28.1131C29.9185 58.2402 31.38 56.7899 31.38 54.9983V54.6143C32.7412 54.6712 34.1024 54.6712 35.4493 54.5575V54.984C35.4493 56.7757 36.9109 58.226 38.7163 58.226H48.1875C49.821 58.226 51.1822 57.0316 51.4114 55.4675C51.4401 55.3395 51.4544 55.2116 51.4544 55.0694V54.33C51.5117 52.9934 51.9559 49.6661 54.5351 47.0355C56.3978 45.1302 58.0456 42.656 59.4355 39.6984C60.2665 38.0774 60.9113 36.3711 61.3412 34.6222V34.5653C61.3412 34.5653 61.3698 34.5084 61.3842 34.4658C61.7997 32.731 62.0003 30.9679 62.0003 29.2047C62.0003 22.3653 58.9483 15.9382 53.4031 11.1321C47.9296 6.38292 40.665 3.76659 32.9418 3.76659C31.7382 3.76659 30.506 3.83768 29.3167 3.96566C28.8295 4.00831 26.2504 4.19316 24.2157 4.81881C22.5249 2.885 19.7022 0.83744 15.074 0.268673C14.9307 0.268673 14.7874 0.240234 14.6442 0.240234C13.4119 0.240234 12.2656 0.908535 11.6495 1.98919C11.0333 3.08407 11.0763 4.37801 11.7498 5.44445C12.9534 7.3356 13.3116 9.16987 12.8388 10.862C9.48585 13.6774 6.96401 17.1468 5.4595 20.9718H4.5568C2.03496 20.9718 -0.0283623 23.0051 0.000294951 25.5077ZM14.8591 1.94653L14.6442 3.63862L14.8734 1.94653H14.8591ZM3.41051 32.5462V25.5504C3.41051 24.9247 3.92634 24.3986 4.57113 24.3986H6.67744C7.4082 24.3986 8.08164 23.9152 8.3109 23.2184C9.58615 19.365 12.0793 15.8813 15.5039 13.1228C15.8907 12.81 16.12 12.3407 16.1343 11.8431C16.8794 9.21253 16.3779 6.38292 14.6585 3.65284C18.8998 4.16473 21.1207 6.22651 22.224 7.84749C22.7255 8.57267 23.6855 8.80018 24.4593 8.38782C25.5196 7.81905 28.1561 7.44935 29.5889 7.36404C29.6176 7.36404 29.6462 7.36404 29.6606 7.36404C30.7352 7.25029 31.8528 7.19341 32.9418 7.19341C47.0699 7.19341 58.5614 17.0757 58.5614 29.2189C58.5614 30.7261 58.3752 32.2618 58.0169 33.7548V33.7833C58.0169 33.7833 58.0169 33.8117 58.0169 33.8259C57.6444 35.3331 57.0856 36.7977 56.3691 38.1912C56.3691 38.2196 56.3691 38.2339 56.3405 38.2481C55.1225 40.8786 53.6897 43.0257 52.0849 44.6751C48.6603 48.1731 48.1158 52.5241 48.0442 54.2304V54.8419H38.9025V52.6805C38.9025 52.1829 38.6876 51.7279 38.3151 51.3866C37.9425 51.0738 37.4553 50.9174 36.9538 50.9885C35.6499 51.1591 34.303 51.2586 32.9705 51.2586C31.9388 51.2586 30.8928 51.2017 29.8612 51.088C29.3883 51.0311 28.9011 51.1875 28.5429 51.5146C28.1704 51.8274 27.9698 52.2966 27.9698 52.7801V54.8419H18.8138V52.6521C18.7851 51.6141 18.4412 48.0166 15.0454 44.9737C15.0454 44.9737 15.0167 44.9453 15.0024 44.9311C14.8877 44.8316 14.7731 44.732 14.6585 44.6325C14.6585 44.6325 14.6585 44.604 14.6298 44.5898C11.5635 41.874 9.34256 38.5182 8.22493 34.8924C8.01 34.1814 7.33656 33.6979 6.59147 33.6979H4.61411C3.98365 33.6979 3.4535 33.1861 3.4535 32.5462H3.41051Z" fill="white"/>
<path d="M4.44203 31.5073C4.63196 31.5073 4.78592 30.4314 4.78592 29.1042C4.78592 27.777 4.63196 26.7012 4.44203 26.7012C4.25211 26.7012 4.09814 27.777 4.09814 29.1042C4.09814 30.4314 4.25211 31.5073 4.44203 31.5073Z" fill="white"/>
<path d="M13.7414 23.2603C13.7414 24.4974 13.154 25.5069 12.4232 25.5069C11.6925 25.5069 11.105 24.4974 11.105 23.2603C11.105 22.0232 11.6925 21.0137 12.4232 21.0137C13.154 21.0137 13.7414 22.0232 13.7414 23.2603Z" fill="white"/>
<path d="M41.4095 12.5254C41.3092 12.5254 41.2232 12.5254 41.1229 12.4827C32.9842 10.3356 27.2241 12.4259 27.1668 12.4543C26.5937 12.6676 25.9632 12.3832 25.7483 11.8144C25.5334 11.2457 25.8199 10.62 26.3787 10.4067C26.6367 10.3072 32.8123 8.03213 41.6817 10.3641C42.2692 10.5205 42.6274 11.1177 42.4698 11.7007C42.3408 12.1983 41.8967 12.5112 41.4095 12.5112V12.5254Z" fill="white"/>
</g>
<defs>
<clipPath id="clip0_148_117">
<rect width="62" height="58" fill="white" transform="translate(0 0.240234)"/>
</clipPath>
</defs>
</svg>
