<svg width="69" height="81" viewBox="0 0 69 81" fill="none" xmlns="http://www.w3.org/2000/svg">
<g clip-path="url(#clip0_3_515)">
<path d="M66.2286 26.0085C66.2286 26.0085 66.2286 25.9722 66.2286 25.9541C66.2286 25.8997 66.2286 25.8453 66.2103 25.7909C66.2103 25.7727 66.2103 25.7365 66.2103 25.7183C66.1921 25.6458 66.1739 25.5732 66.1374 25.5188C66.1374 25.5007 66.1192 25.4825 66.101 25.4463C66.101 25.41 66.0827 25.3918 66.0645 25.3737L61.9263 18.5179C61.6711 18.1008 61.2336 17.8468 60.7414 17.8468H58.3897L59.3559 13.7479C59.4471 13.3851 59.3741 13.0224 59.1919 12.7141C58.9913 12.4057 58.6814 12.1881 58.335 12.0974L45.9934 9.23175C44.8632 3.9176 40.0505 0 34.5269 0C30.7897 0 27.2531 1.79557 25.0473 4.78818C24.9744 4.87886 24.938 4.96955 24.8833 5.06023L9.35143 6.89207C8.604 6.98276 8.05711 7.67197 8.14826 8.41558L9.26028 17.8468H8.27587C7.78366 17.8468 7.34614 18.1008 7.09093 18.5179L2.95275 25.3737C2.95275 25.3737 2.91629 25.4463 2.89806 25.4825C2.89806 25.4825 2.89806 25.5007 2.87983 25.5188C2.84337 25.5914 2.82514 25.6639 2.80691 25.7365C2.80691 25.7365 2.80691 25.7546 2.80691 25.7727C2.80691 25.8453 2.78868 25.9178 2.77045 25.9722C2.77045 25.9722 2.77045 25.9904 2.77045 26.0085L-0.000488217 79.549C-0.0187181 79.9299 0.108891 80.2927 0.382339 80.5647C0.637557 80.8368 1.00215 81 1.38498 81H67.614C67.9969 81 68.3615 80.8368 68.6167 80.5647C68.8719 80.2927 69.0177 79.9299 68.9995 79.549L66.2468 26.0085H66.2286ZM21.4925 20.8757L41.0349 16.1964L43.0949 24.7026H22.4222L21.4925 20.8757ZM59.9393 20.5855L62.4185 24.7026H56.749L57.7152 20.5855H59.921H59.9393ZM53.9234 24.7026H45.9387L43.4048 14.2194C43.3136 13.8748 43.0949 13.5665 42.785 13.367C42.4751 13.1856 42.0922 13.1131 41.7459 13.2038L39.5036 13.7479L40.2146 10.7009L56.3298 14.4552L53.9234 24.7026ZM34.4904 2.73869C38.264 2.73869 41.5818 5.11464 42.8761 8.50627L39.4854 7.72638C39.1208 7.63569 38.7562 7.70824 38.4463 7.88961C38.1364 8.08912 37.9176 8.39745 37.8265 8.74205L36.4775 14.4552L35.0738 14.7817L33.9617 5.35043C33.9253 4.98768 33.7247 4.66122 33.4513 4.42544C33.1778 4.18966 32.795 4.09897 32.4304 4.13524L29.0579 4.53426C30.6074 3.35535 32.5216 2.70242 34.4904 2.70242V2.73869ZM31.3913 7.05531L32.394 15.4346L19.5055 18.5179C18.758 18.6993 18.3023 19.4429 18.4846 20.1684L19.5784 24.6845H12.8698L11.065 9.43126L31.4096 7.03717L31.3913 7.05531ZM9.05975 20.5855H9.58842L10.0806 24.7026H6.58049L9.05975 20.5855ZM2.82514 78.2613L5.45024 27.4595H63.5488L66.1739 78.2613H2.82514Z" fill="white"/>
<path d="M44.8453 30.1992C42.5666 30.1992 40.7072 32.0492 40.7072 34.3163C40.7072 36.1119 41.8556 37.6354 43.4599 38.1977V43.2397C43.4599 48.1549 39.4311 52.1632 34.4908 52.1632C29.5505 52.1632 25.5217 48.1549 25.5217 43.2397V38.1977C27.1259 37.6354 28.2744 36.1119 28.2744 34.3163C28.2744 32.0492 26.415 30.1992 24.1362 30.1992C21.8575 30.1992 19.998 32.0492 19.998 34.3163C19.998 36.1119 21.1465 37.6354 22.7508 38.1977V43.2397C22.7508 49.6784 28.0192 54.9019 34.4726 54.9019C40.9259 54.9019 46.1943 49.6603 46.1943 43.2397V38.1977C47.7986 37.6354 48.9471 36.1119 48.9471 34.3163C48.9471 32.0492 47.0876 30.1992 44.8089 30.1992H44.8453ZM24.1545 32.9379C24.9201 32.9379 25.5399 33.5546 25.5399 34.3163C25.5399 34.5702 25.467 34.806 25.3394 35.0055C25.1024 34.5884 24.6649 34.3163 24.1545 34.3163C23.644 34.3163 23.2065 34.5884 22.9695 35.0055C22.8419 34.806 22.769 34.5702 22.769 34.3163C22.769 33.5546 23.3888 32.9379 24.1545 32.9379ZM46.0485 35.0055C45.8115 34.5884 45.374 34.3163 44.8636 34.3163H44.7542C44.2802 34.3163 43.8792 34.5521 43.6239 34.9148C43.5328 34.7335 43.4781 34.534 43.4781 34.3163C43.4781 33.5546 44.0979 32.9379 44.8636 32.9379C45.6292 32.9379 46.249 33.5546 46.249 34.3163C46.249 34.5702 46.1761 34.806 46.0485 35.0055Z" fill="white"/>
</g>
<defs>
<clipPath id="clip0_3_515">
<rect width="69" height="81" fill="white"/>
</clipPath>
</defs>
</svg>
