<svg xmlns="http://www.w3.org/2000/svg" width="58" height="61" viewBox="0 0 58 61" fill="none">
  <path d="M29.2293 15.9128L5.67752 0.859587C3.54562 -0.501274 0.75293 1.03406 0.75293 3.57084V23.5615C0.75293 25.3376 2.18579 26.7753 3.956 26.7753C5.72621 26.7753 7.15907 25.3376 7.15907 23.5615V9.43301L27.5078 22.438C28.5581 23.1079 29.9005 23.1079 30.9508 22.438L51.2995 9.42952V23.5615C51.2995 25.3376 52.7324 26.7753 54.5026 26.7753C56.2728 26.7753 57.7056 25.3376 57.7056 23.5615V3.57084C57.7056 1.03406 54.913 -0.504763 52.7811 0.859587L29.2293 15.9128Z" fill="#3634A3"/>
  <path d="M51.2995 53.6015H38.842C37.0718 53.6015 35.6389 55.0391 35.6389 56.8152V57.1362C35.6389 58.9123 37.0718 60.3499 38.842 60.3499H54.5061C56.2763 60.3499 57.7091 58.9123 57.7091 57.1362V41.42C57.7091 39.6439 56.2763 38.2063 54.5061 38.2063C52.7358 38.2063 51.303 39.6439 51.303 41.42V53.6015H51.2995ZM3.956 38.2063C2.18579 38.2063 0.75293 39.6474 0.75293 41.42V57.1362C0.75293 58.9123 2.18579 60.3499 3.956 60.3499H19.6201C21.3903 60.3499 22.8232 58.9123 22.8232 57.1362V56.8152C22.8232 55.0391 21.3903 53.6015 19.6201 53.6015H7.15907V41.42C7.15907 39.6439 5.72621 38.2063 3.956 38.2063Z" fill="#5DE6FF"/>
</svg>