<svg xmlns="http://www.w3.org/2000/svg" width="191" height="35" viewBox="0 0 191 35" fill="none">
  <path d="M88.4601 32.2932V32.2862C88.4601 31.2289 89.3156 30.3705 90.3694 30.3705H102.243C104.069 30.3705 105.547 28.8876 105.547 27.0556V24.2536C105.547 22.6939 104.555 21.3121 103.084 20.8166L93.5273 17.5994C90.5016 16.5805 88.4601 13.7331 88.4601 10.5299V7.65813C88.4601 3.70814 91.6527 0.504883 95.5896 0.504883H105.143C106.197 0.504883 107.052 1.36327 107.052 2.42056C107.052 3.47784 106.197 4.33623 105.143 4.33623H95.5827C93.7568 4.33623 92.2787 5.81922 92.2787 7.65115V10.5334C92.2787 12.0931 93.2699 13.4749 94.741 13.9704L104.298 17.1876C107.327 18.2065 109.365 21.0469 109.365 24.2571V27.0591C109.365 31.0091 106.173 34.2124 102.236 34.2124H90.3694C89.3156 34.2124 88.4601 33.354 88.4601 32.2967V32.2932Z" fill="#3634A3"/>
  <path d="M57.3302 27.0552V18.1259C57.3302 14.1759 60.5228 10.9726 64.4597 10.9726H71.2484V2.42014C71.2484 1.35937 72.104 0.500977 73.1612 0.500977C74.2185 0.500977 75.074 1.35937 75.074 2.42014V32.2893C75.074 33.3501 74.2185 34.2084 73.1612 34.2084H64.4597C60.5228 34.2084 57.3302 31.0052 57.3302 27.0552ZM61.1558 18.1259V27.0517C61.1558 28.8836 62.6339 30.3666 64.4597 30.3666H71.2449V14.8109H64.4597C62.6339 14.8109 61.1558 16.2939 61.1558 18.1259Z" fill="#3634A3"/>
  <path d="M79.8522 4.16525V2.42405C79.8522 1.36327 80.7077 0.504883 81.765 0.504883C82.8222 0.504883 83.6778 1.36327 83.6778 2.42405V4.16525C83.6778 5.22602 82.8222 6.08441 81.765 6.08441C80.7077 6.08441 79.8522 5.22602 79.8522 4.16525ZM83.6778 32.2897V12.8922C83.6778 11.8314 82.8222 10.973 81.765 10.973C80.7077 10.973 79.8522 11.8314 79.8522 12.8922V32.2897C79.8522 33.3505 80.7077 34.2089 81.765 34.2089C82.8222 34.2089 83.6778 33.3505 83.6778 32.2897Z" fill="#3634A3"/>
  <path d="M128.069 32.2908V18.1274C128.069 16.2955 126.591 14.8125 124.765 14.8125H117.976V32.2908C117.976 33.3516 117.121 34.21 116.063 34.21C115.006 34.21 114.151 33.3516 114.151 32.2908V2.41819C114.151 1.35741 115.006 0.499023 116.063 0.499023C117.121 0.499023 117.976 1.35741 117.976 2.41819V10.9742H124.765C128.702 10.9742 131.894 14.1774 131.894 18.1274V32.2908C131.894 33.3516 131.039 34.21 129.982 34.21C128.924 34.21 128.069 33.3516 128.069 32.2908Z" fill="#3634A3"/>
  <path d="M26.2035 32.2932V6.8451L17.982 20.2164C17.4429 21.0923 16.49 21.6261 15.464 21.6261C14.4381 21.6261 13.4851 21.0923 12.9461 20.2164L4.72452 6.8451V32.2932C4.72452 33.3505 3.86899 34.2089 2.81521 34.2089C1.76143 34.2089 0.905884 33.3505 0.905884 32.2932V3.34175C0.905884 1.77502 2.17181 0.504883 3.73335 0.504883C4.71409 0.504883 5.62528 1.01433 6.14 1.85179L15.464 17.0167L24.7881 1.85179C25.3028 1.01433 26.214 0.504883 27.1947 0.504883C28.7562 0.504883 30.0222 1.77502 30.0222 3.34175V32.2932C30.0222 33.3505 29.1666 34.2089 28.1128 34.2089C27.0591 34.2089 26.2035 33.3505 26.2035 32.2932Z" fill="#3634A3"/>
  <path d="M174.765 32.2899C174.765 31.2291 175.621 30.3707 176.678 30.3707H185.195C186.155 30.3707 186.934 29.5891 186.934 28.626V27.4396C186.934 26.5533 186.371 25.7752 185.529 25.4995L178.424 23.1965C176.237 22.4882 174.765 20.4609 174.765 18.1509V16.5527C174.765 13.4681 177.256 10.9697 180.33 10.9697H187.153C188.211 10.9697 189.066 11.8281 189.066 12.8889C189.066 13.9497 188.211 14.8081 187.153 14.8081H180.323C179.363 14.8081 178.584 15.5897 178.584 16.5527V17.7391C178.584 18.6219 179.151 19.4071 179.989 19.6757L186.705 21.8531C189.125 22.6382 190.753 24.8819 190.753 27.4361V28.6225C190.753 31.7071 188.263 34.2055 185.188 34.2055H176.678C175.621 34.2055 174.765 33.3472 174.765 32.2864V32.2899Z" fill="#3634A3"/>
  <path d="M166.332 34.1952C162.395 34.1952 159.202 30.9919 159.202 27.042V2.41037C159.202 1.3496 160.058 0.491211 161.115 0.491211C162.172 0.491211 163.028 1.3496 163.028 2.41037V10.9594H168.071C169.128 10.9594 169.983 11.8178 169.983 12.8785C169.983 13.9393 169.128 14.7977 168.071 14.7977H163.028V27.042C163.028 28.8739 164.506 30.3569 166.332 30.3569H168.071C169.128 30.3569 169.983 31.2153 169.983 32.276C169.983 33.3368 169.128 34.1952 168.071 34.1952H166.332Z" fill="#3634A3"/>
  <path d="M136.676 17.9485V27.2268C136.676 31.0825 139.789 34.2055 143.632 34.2055H147.465C151.308 34.2055 154.42 31.0825 154.42 27.2268V17.9485C154.42 14.0927 151.308 10.9697 147.465 10.9697H143.632C139.789 10.9697 136.676 14.0927 136.676 17.9485ZM147.291 30.3672H143.806C141.98 30.3672 140.502 28.8842 140.502 27.0523V18.1718C140.502 16.312 142.004 14.8081 143.855 14.8081H147.291C149.116 14.8081 150.595 16.291 150.595 18.123V27.0523C150.595 28.8842 149.116 30.3672 147.291 30.3672Z" fill="#3634A3"/>
  <path d="M52.548 22.5929V12.8889C52.548 11.8281 51.6924 10.9697 50.6352 10.9697H41.7598C37.9168 10.9697 34.8041 14.0962 34.8041 17.9485V27.2268C34.8041 31.0825 37.9168 34.2055 41.7598 34.2055H50.6352C51.6924 34.2055 52.548 33.3472 52.548 32.2864C52.548 31.2256 51.6924 30.3672 50.6352 30.3672H41.9337C40.1078 30.3672 38.6297 28.8842 38.6297 27.0523V24.512H50.6352C51.6924 24.512 52.548 23.6536 52.548 22.5929ZM38.6297 18.1753C38.6297 16.3155 40.1321 14.8081 41.9823 14.8081H48.7224V20.6737H38.6297V18.1753Z" fill="#3634A3"/>
</svg>