<svg xmlns="http://www.w3.org/2000/svg" width="45" height="44" viewBox="0 0 45 44" fill="none">
  <path d="M1.05713 4.5478L4.07 1.67188L6.94592 4.5478" stroke="white" stroke-width="2" stroke-miterlimit="10" stroke-linecap="round" stroke-linejoin="round"/>
  <path d="M4.07001 1.67188V11.3952" stroke="white" stroke-width="2" stroke-miterlimit="10" stroke-linecap="round" stroke-linejoin="round"/>
  <path d="M4.06982 14.2715V18.7908" stroke="white" stroke-width="2" stroke-linecap="round" stroke-linejoin="round"/>
  <path d="M37.7593 4.5478L40.7722 1.67188L43.6481 4.5478" stroke="white" stroke-width="2" stroke-miterlimit="10" stroke-linecap="round" stroke-linejoin="round"/>
  <path d="M40.7722 1.67188V11.3952" stroke="white" stroke-width="2" stroke-miterlimit="10" stroke-linecap="round" stroke-linejoin="round"/>
  <path d="M40.772 14.2715V18.7908" stroke="white" stroke-width="2" stroke-linecap="round" stroke-linejoin="round"/>
  <path d="M22.4213 42.4833C30.5899 42.4833 37.2118 35.8613 37.2118 27.6928C37.2118 19.5243 30.5899 12.9023 22.4213 12.9023C14.2528 12.9023 7.63086 19.5243 7.63086 27.6928C7.63086 35.8613 14.2528 42.4833 22.4213 42.4833Z" stroke="white" stroke-width="2" stroke-miterlimit="10" stroke-linecap="round" stroke-linejoin="round"/>
  <path d="M26.8037 32.6239C26.3929 33.1717 25.982 33.5825 25.2973 33.8564C24.6125 34.1303 23.9278 34.4042 22.9692 34.4042V35.7737C22.9692 35.9106 22.9692 36.0476 22.8322 36.1845C22.6953 36.3215 22.5583 36.3215 22.4214 36.3215C22.2844 36.3215 22.1475 36.3215 22.0105 36.1845C21.8736 36.0476 21.8736 35.9106 21.8736 35.7737V34.4042C20.5041 34.2672 19.2715 33.9934 18.039 33.5825C17.9021 33.5825 17.7651 33.4456 17.6282 33.3086C17.4912 33.1717 17.4912 33.0347 17.4912 32.8978C17.4912 32.6239 17.6282 32.4869 17.7651 32.35C17.9021 32.213 18.039 32.0761 18.3129 32.0761C18.4499 32.0761 18.5868 32.0761 18.7237 32.213C19.6824 32.6239 20.778 32.8978 21.8736 33.0347V28.6524C21.0519 28.3785 20.2302 28.2415 19.6824 27.9676C19.1346 27.6937 18.5868 27.2829 18.176 26.872C17.7651 26.3242 17.6282 25.7764 17.6282 25.0917C17.6282 24.4069 17.7651 23.8592 18.176 23.3114C18.4499 22.7636 18.9976 22.3527 19.5454 21.9419C20.2302 21.531 20.9149 21.3941 21.8736 21.2571V19.8876C21.8736 19.7507 21.8736 19.6137 22.0105 19.4768C22.1475 19.3398 22.2844 19.3398 22.4214 19.3398C22.5583 19.3398 22.6953 19.3398 22.8322 19.4768C22.9692 19.6137 22.9692 19.7507 22.9692 19.8876V21.1202C24.2017 21.1202 25.2973 21.3941 26.2559 21.8049C26.6668 21.9419 26.8037 22.2158 26.8037 22.4897C26.8037 22.6266 26.6668 22.9005 26.5298 23.0375C26.3929 23.1744 26.2559 23.3114 25.982 23.3114C25.8451 23.3114 25.8451 23.3114 25.7081 23.1744C24.8864 22.9005 23.9278 22.7636 22.9692 22.6266V27.1459C23.9278 27.4198 24.6125 27.5568 25.1603 27.8307C25.7081 28.1046 26.2559 28.5154 26.6668 28.9263C27.0776 29.474 27.2146 30.0218 27.2146 30.8435C27.3515 31.3913 27.0776 32.0761 26.8037 32.6239ZM19.9563 25.9134C20.3671 26.1873 21.0519 26.4612 21.8736 26.7351V22.6266C21.0519 22.7636 20.5041 22.9005 20.0932 23.3114C19.6824 23.7222 19.4085 24.133 19.4085 24.6808C19.2715 25.2286 19.5454 25.6395 19.9563 25.9134ZM25.5712 30.7066C25.5712 30.1588 25.2973 29.8849 24.8864 29.611C24.4756 29.3371 23.7908 29.0632 22.8322 28.7893V32.8978C24.7495 32.6239 25.5712 31.9391 25.5712 30.7066Z" fill="white"/>
</svg>