<svg xmlns="http://www.w3.org/2000/svg" width="49" height="49" viewBox="0 0 49 49" fill="none">
  <g clip-path="url(#clip0_3_458)">
    <path d="M29.4801 39.019C29.7196 39.1322 29.9983 39.1314 30.2371 39.0183C32.1274 38.1211 33.9438 36.4134 33.9417 34.2136C33.9391 32.0823 31.328 31.0224 29.854 32.5235C28.3507 31.0162 25.7638 32.0984 25.7656 34.222C25.7682 36.4676 27.686 38.1723 29.4801 39.019ZM29.0216 33.732C29.1516 33.9613 29.4904 34.214 29.8793 34.203C30.2122 34.1949 30.5161 34.0023 30.6831 33.7339C31.2643 32.7993 32.5343 33.2658 32.5354 34.2151C32.5369 35.7304 31.1716 36.9419 29.8558 37.6362C28.5199 36.9477 27.1737 35.725 27.1722 34.2206C27.1715 33.2153 28.5184 32.8465 29.0216 33.732Z" fill="white"/>
    <path d="M25.5146 47.5864C25.5146 47.9746 25.8292 48.2896 26.2178 48.2896H38.9594C39.9489 48.2896 40.7542 47.4846 40.7542 46.4951C40.7542 45.4437 40.7542 36.8564 40.7542 35.8047C40.7542 35.4165 40.4392 35.1016 40.051 35.1016C39.6625 35.1016 39.3475 35.4165 39.3475 35.8047V39.1932H35.684C34.6945 39.1932 33.8895 39.9982 33.8895 40.988V46.8833H26.2178C25.8296 46.8833 25.5146 47.1979 25.5146 47.5864ZM35.2958 40.988C35.2958 40.7738 35.4701 40.5995 35.684 40.5995H39.3479V46.4948C39.3479 46.709 39.1736 46.8833 38.9594 46.8833H35.2958V40.988Z" fill="white"/>
    <path d="M40.7544 31.8466C40.7544 27.6893 37.1945 26.178 37.0432 26.1157C37.0388 26.1139 37.0341 26.1121 37.0297 26.1102L28.6233 22.8546V20.8833C29.9647 19.84 30.8927 18.2913 31.1198 16.525C32.6652 16.3159 33.941 15.077 33.941 13.5583C33.941 12.8801 33.6858 12.2297 33.2159 11.698V9.00342C33.2159 4.19836 29.307 0.289062 24.502 0.289062C19.6969 0.289062 15.7876 4.19836 15.7876 9.00342V11.7588C15.3188 12.2803 15.0625 12.9113 15.0625 13.5583C15.0625 15.0715 16.3318 16.3148 17.8834 16.525C18.116 18.355 19.0923 19.9487 20.5223 20.9873V22.855C20.5139 22.8583 12.12 26.1121 12.1116 26.1157C11.96 26.178 8.40039 27.689 8.40039 31.8466V46.4946C8.40039 47.4841 9.20569 48.2891 10.1952 48.2891H22.9368C23.325 48.2891 23.6399 47.9741 23.6399 47.5859C23.6399 47.1974 23.325 46.8828 22.9368 46.8828H15.2654V40.9875C15.2654 39.9977 14.4601 39.1927 13.4706 39.1927H9.80664V31.8466C9.80664 28.6803 12.4781 27.4883 12.6418 27.4183L18.4902 25.1508C19.4724 27.2488 22.2725 28.306 24.5726 28.306C26.8699 28.306 29.6729 27.2506 30.6554 25.15L36.5126 27.4183C36.6393 27.4729 39.3478 28.6807 39.3478 31.8466V32.5229C39.3478 32.9111 39.6627 33.2261 40.0509 33.2261C40.4395 33.2261 40.754 32.9111 40.754 32.5229V31.8466H40.7544ZM9.80664 40.599H13.4706C13.6844 40.599 13.8588 40.7733 13.8588 40.9875V46.8828H10.1948C9.98096 46.8828 9.80664 46.7085 9.80664 46.4946V40.599ZM32.5352 13.5583C32.5352 14.2904 31.9009 14.8961 31.1758 15.084V12.0349C31.9441 12.2363 32.5352 12.8556 32.5352 13.5583ZM17.8281 15.0844C17.1019 14.8961 16.4688 14.2893 16.4688 13.5583C16.4688 12.8574 17.1448 12.2909 17.8281 12.0774V15.0844ZM17.8582 10.6243C17.6333 10.6642 17.4103 10.7261 17.1938 10.8085V9.00342C17.1938 4.97363 20.4722 1.69531 24.5016 1.69531C28.5314 1.69531 31.8097 4.97363 31.8097 9.00342V10.7576C31.5955 10.6821 31.3677 10.6287 31.1758 10.5994C31.1758 10.4371 31.1787 10.3097 31.1469 10.1833C31.0549 9.81934 30.6781 9.48169 29.0265 7.70776C28.5079 7.15039 27.8531 7.12439 27.3646 7.44373C24.915 9.04407 21.9275 9.84827 19.1696 9.65015C18.5481 9.60291 17.9926 10.024 17.8582 10.6243ZM19.2344 15.6813C19.2344 15.136 19.2344 11.5273 19.2344 11.0637C22.2208 11.238 25.4047 10.3698 28.0223 8.69324C29.0334 9.77905 29.5919 10.3599 29.7695 10.5778V15.6813C29.7695 18.5663 27.4163 20.8599 24.5942 20.8632C24.5917 20.8632 24.5895 20.8635 24.5873 20.8635C24.5854 20.8635 24.5836 20.8632 24.5818 20.8632C21.3818 20.861 19.2344 18.3773 19.2344 15.6813ZM27.217 21.7216V23.074C26.5238 23.8236 25.5618 24.2297 24.5726 24.2297C23.5784 24.2297 22.6218 23.8236 21.9286 23.074V21.7659C22.7837 22.1097 23.7065 22.2698 24.5873 22.2698C25.5043 22.2698 26.4103 22.0746 27.217 21.7216ZM20.7344 25.7107C20.3418 25.439 20.0239 25.0702 19.806 24.641L21.0277 24.1671C21.937 25.0786 23.2004 25.636 24.5726 25.636C25.9071 25.636 27.1819 25.105 28.1179 24.1671L29.34 24.6403C28.3354 26.6204 24.035 27.9929 20.7344 25.7107Z" fill="white"/>
  </g>
  <defs>
    <clipPath id="clip0_3_458">
      <rect width="48" height="48" fill="white" transform="translate(0.619141 0.289062)"/>
    </clipPath>
  </defs>
</svg>