<svg xmlns="http://www.w3.org/2000/svg" width="54" height="54" viewBox="0 0 54 54" fill="none">
  <path d="M11.0275 17.2676V29.6873C11.0275 38.3351 18.0941 48.7849 26.8745 48.7849C35.6548 48.7849 42.7215 38.3351 42.7215 29.6873V21.6931C46.2548 20.6066 48.8253 17.3118 48.8253 13.4339C48.8253 8.67276 44.9475 4.79492 40.1863 4.79492C36.7413 4.79492 33.7645 6.82659 32.3776 9.75926H5.54197C5.21514 9.75926 4.92364 9.93592 4.76464 10.2186C4.61447 10.5013 4.6233 10.8458 4.79997 11.1196C4.9413 11.3404 7.29097 14.9268 11.0275 17.2676ZM40.1863 6.56159C43.9758 6.56159 47.0586 9.64442 47.0586 13.4339C47.0586 17.2234 43.9758 20.3063 40.1863 20.3063C36.3968 20.3063 33.314 17.2234 33.314 13.4339C33.314 9.64442 36.388 6.56159 40.1863 6.56159ZM31.7593 11.5259C31.618 12.1443 31.5385 12.7803 31.5385 13.4428C31.5385 18.2039 35.4163 22.0818 40.1775 22.0818C40.4336 22.0818 40.6898 22.0641 40.946 22.0464V29.6961C40.946 37.5489 34.6655 47.0271 26.8656 47.0271C19.0658 47.0271 12.7941 37.5401 12.7941 29.6873V18.2128C14.2075 18.8576 15.771 19.2816 17.4493 19.2816C17.9351 19.2816 18.3326 18.8841 18.3326 18.3983C18.3326 17.9124 17.9351 17.5149 17.4493 17.5149C15.665 17.5149 14.0043 16.9408 12.538 16.1104C12.4408 16.0133 12.3171 15.9426 12.1758 15.8984C10.0116 14.5911 8.3068 12.7626 7.29097 11.5259H31.7593Z" fill="white"/>
  <path d="M30.2755 28.1494C30.7614 28.1494 31.1589 27.7519 31.1589 27.266C31.1589 26.3562 31.9009 25.6142 32.8107 25.6142C33.7205 25.6142 34.4625 26.3562 34.4625 27.266C34.4625 27.7519 34.86 28.1494 35.3459 28.1494C35.8317 28.1494 36.2292 27.7519 36.2292 27.266C36.2292 25.3845 34.6922 23.8475 32.8107 23.8475C30.9292 23.8475 29.3922 25.3845 29.3922 27.266C29.3922 27.7519 29.7897 28.1494 30.2755 28.1494Z" fill="white"/>
  <path d="M18.4035 28.1494C18.8894 28.1494 19.2869 27.7519 19.2869 27.266C19.2869 26.3562 20.0289 25.6142 20.9387 25.6142C21.8485 25.6142 22.5905 26.3562 22.5905 27.266C22.5905 27.7519 22.988 28.1494 23.4739 28.1494C23.9597 28.1494 24.3572 27.7519 24.3572 27.266C24.3572 25.3845 22.8202 23.8475 20.9387 23.8475C19.0572 23.8475 17.5202 25.3845 17.5202 27.266C17.5202 27.7519 17.9177 28.1494 18.4035 28.1494Z" fill="white"/>
  <path d="M21.9811 37.9288C21.6896 38.3263 21.7779 38.874 22.1754 39.1655C23.5799 40.1902 25.2229 40.6937 26.8748 40.6937C28.5178 40.6937 30.1696 40.1813 31.5741 39.1655C31.9716 38.8828 32.0599 38.3263 31.7684 37.9288C31.4858 37.5313 30.9293 37.443 30.5318 37.7345C28.3411 39.3245 25.3996 39.3245 23.2178 37.7345C22.8203 37.443 22.2638 37.5313 21.9811 37.9288Z" fill="white"/>
  <path d="M38.1636 16.5257C38.3315 16.6935 38.5523 16.7819 38.7908 16.7819C39.0293 16.7819 39.2501 16.6847 39.418 16.5257L44.3558 11.5879C44.7003 11.2434 44.7003 10.6869 44.3558 10.3424C44.0113 9.99786 43.4548 9.99786 43.1103 10.3424L38.7996 14.653L37.2715 13.1249C36.927 12.7804 36.3705 12.7804 36.026 13.1249C35.6815 13.4694 35.6815 14.0259 36.026 14.3704L38.1636 16.5257Z" fill="white"/>
</svg>